<?xml version="1.0" encoding="UTF-8" standalone="no"?>
<svg
   xmlns:dc="http://purl.org/dc/elements/1.1/"
   xmlns:cc="http://creativecommons.org/ns#"
   xmlns:rdf="http://www.w3.org/1999/02/22-rdf-syntax-ns#"
   xmlns:svg="http://www.w3.org/2000/svg"
   xmlns="http://www.w3.org/2000/svg"
   xmlns:xlink="http://www.w3.org/1999/xlink"
   id="Svg"
   width="512"
   height="512"
   version="1.1">
				<defs>
					<clipPath id="clipPath">
						
					<rect x="0" y="0" width="512" height="512"/></clipPath>
				<g transform="matrix(1,0,0,1,-5,-3)" id="gSmbnsrd0kyi3"> <g id="layer1" transform="translate(2.5)">
    <circle style="fill:#000000;stroke:none;stroke-width:0.347956;stroke-linecap:round;stroke-linejoin:bevel;stroke-miterlimit:4;stroke-dasharray:none" id="circle2471" cx="5" cy="2.9" r="1"/>
  </g></g></defs>
				<g id="Pattern" style="clip-path: url(#clipPath);">
				<use xlink:href="#gSmbnsrd0kyi3" x="54.857142857142854" y="117.33333333333333"/><use xlink:href="#gSmbnsrd0kyi3" x="457.1428571428571" y="437.3333333333333"/><use xlink:href="#gSmbnsrd0kyi3" x="91.42857142857142" y="224"/><use xlink:href="#gSmbnsrd0kyi3" x="384" y="352"/><use xlink:href="#gSmbnsrd0kyi3" x="91.42857142857142" y="437.3333333333333"/><use xlink:href="#gSmbnsrd0kyi3" x="347.4285714285714" y="416"/><use xlink:href="#gSmbnsrd0kyi3" x="54.857142857142854" y="416"/><use xlink:href="#gSmbnsrd0kyi3" x="128" y="117.33333333333333"/><use xlink:href="#gSmbnsrd0kyi3" x="310.85714285714283" y="224"/><use xlink:href="#gSmbnsrd0kyi3" x="128" y="245.33333333333331"/><use xlink:href="#gSmbnsrd0kyi3" x="384" y="96"/><use xlink:href="#gSmbnsrd0kyi3" x="164.57142857142856" y="224"/><use xlink:href="#gSmbnsrd0kyi3" x="384" y="53.33333333333333"/><use xlink:href="#gSmbnsrd0kyi3" x="493.71428571428567" y="330.66666666666663"/><use xlink:href="#gSmbnsrd0kyi3" x="-18.285714285714334" y="330.66666666666663"/><use xlink:href="#gSmbnsrd0kyi3" x="420.57142857142856" y="245.33333333333331"/><use xlink:href="#gSmbnsrd0kyi3" x="384" y="437.3333333333333"/><use xlink:href="#gSmbnsrd0kyi3" x="201.14285714285714" y="416"/><use xlink:href="#gSmbnsrd0kyi3" x="274.2857142857143" y="458.66666666666663"/><use xlink:href="#gSmbnsrd0kyi3" x="384" y="10.666666666666666"/><use xlink:href="#gSmbnsrd0kyi3" x="384" y="522.6666666666666"/><use xlink:href="#gSmbnsrd0kyi3" x="347.4285714285714" y="330.66666666666663"/><use xlink:href="#gSmbnsrd0kyi3" x="201.14285714285714" y="458.66666666666663"/><use xlink:href="#gSmbnsrd0kyi3" x="347.4285714285714" y="458.66666666666663"/><use xlink:href="#gSmbnsrd0kyi3" x="54.857142857142854" y="288"/><use xlink:href="#gSmbnsrd0kyi3" x="493.71428571428567" y="373.3333333333333"/><use xlink:href="#gSmbnsrd0kyi3" x="-18.285714285714334" y="373.3333333333333"/><use xlink:href="#gSmbnsrd0kyi3" x="457.1428571428571" y="224"/><use xlink:href="#gSmbnsrd0kyi3" x="274.2857142857143" y="202.66666666666666"/><use xlink:href="#gSmbnsrd0kyi3" x="128" y="202.66666666666666"/><use xlink:href="#gSmbnsrd0kyi3" x="91.42857142857142" y="352"/><use xlink:href="#gSmbnsrd0kyi3" x="237.7142857142857" y="138.66666666666666"/><use xlink:href="#gSmbnsrd0kyi3" x="347.4285714285714" y="32"/><use xlink:href="#gSmbnsrd0kyi3" x="164.57142857142856" y="181.33333333333331"/><use xlink:href="#gSmbnsrd0kyi3" x="18.285714285714285" y="181.33333333333331"/><use xlink:href="#gSmbnsrd0kyi3" x="530.2857142857143" y="181.33333333333331"/><use xlink:href="#gSmbnsrd0kyi3" x="201.14285714285714" y="330.66666666666663"/><use xlink:href="#gSmbnsrd0kyi3" x="274.2857142857143" y="416"/><use xlink:href="#gSmbnsrd0kyi3" x="493.71428571428567" y="245.33333333333331"/><use xlink:href="#gSmbnsrd0kyi3" x="-18.285714285714334" y="245.33333333333331"/><use xlink:href="#gSmbnsrd0kyi3" x="91.42857142857142" y="309.3333333333333"/><use xlink:href="#gSmbnsrd0kyi3" x="310.85714285714283" y="96"/><use xlink:href="#gSmbnsrd0kyi3" x="347.4285714285714" y="501.3333333333333"/><use xlink:href="#gSmbnsrd0kyi3" x="347.4285714285714" y="-10.666666666666686"/><use xlink:href="#gSmbnsrd0kyi3" x="310.85714285714283" y="266.66666666666663"/><use xlink:href="#gSmbnsrd0kyi3" x="18.285714285714285" y="224"/><use xlink:href="#gSmbnsrd0kyi3" x="530.2857142857143" y="224"/><use xlink:href="#gSmbnsrd0kyi3" x="164.57142857142856" y="437.3333333333333"/><use xlink:href="#gSmbnsrd0kyi3" x="18.285714285714285" y="266.66666666666663"/><use xlink:href="#gSmbnsrd0kyi3" x="530.2857142857143" y="266.66666666666663"/><use xlink:href="#gSmbnsrd0kyi3" x="457.1428571428571" y="53.33333333333333"/><use xlink:href="#gSmbnsrd0kyi3" x="128" y="32"/><use xlink:href="#gSmbnsrd0kyi3" x="274.2857142857143" y="501.3333333333333"/><use xlink:href="#gSmbnsrd0kyi3" x="274.2857142857143" y="-10.666666666666686"/><use xlink:href="#gSmbnsrd0kyi3" x="274.2857142857143" y="245.33333333333331"/><use xlink:href="#gSmbnsrd0kyi3" x="384" y="309.3333333333333"/><use xlink:href="#gSmbnsrd0kyi3" x="18.285714285714285" y="480"/><use xlink:href="#gSmbnsrd0kyi3" x="530.2857142857143" y="480"/><use xlink:href="#gSmbnsrd0kyi3" x="201.14285714285714" y="288"/><use xlink:href="#gSmbnsrd0kyi3" x="493.71428571428567" y="117.33333333333333"/><use xlink:href="#gSmbnsrd0kyi3" x="-18.285714285714334" y="117.33333333333333"/><use xlink:href="#gSmbnsrd0kyi3" x="128" y="330.66666666666663"/><use xlink:href="#gSmbnsrd0kyi3" x="237.7142857142857" y="480"/><use xlink:href="#gSmbnsrd0kyi3" x="201.14285714285714" y="373.3333333333333"/><use xlink:href="#gSmbnsrd0kyi3" x="164.57142857142856" y="53.33333333333333"/><use xlink:href="#gSmbnsrd0kyi3" x="274.2857142857143" y="373.3333333333333"/><use xlink:href="#gSmbnsrd0kyi3" x="164.57142857142856" y="309.3333333333333"/><use xlink:href="#gSmbnsrd0kyi3" x="420.57142857142856" y="288"/><use xlink:href="#gSmbnsrd0kyi3" x="384" y="138.66666666666666"/><use xlink:href="#gSmbnsrd0kyi3" x="18.285714285714285" y="309.3333333333333"/><use xlink:href="#gSmbnsrd0kyi3" x="530.2857142857143" y="309.3333333333333"/><use xlink:href="#gSmbnsrd0kyi3" x="457.1428571428571" y="309.3333333333333"/><use xlink:href="#gSmbnsrd0kyi3" x="237.7142857142857" y="309.3333333333333"/><use xlink:href="#gSmbnsrd0kyi3" x="237.7142857142857" y="10.666666666666666"/><use xlink:href="#gSmbnsrd0kyi3" x="237.7142857142857" y="522.6666666666666"/><use xlink:href="#gSmbnsrd0kyi3" x="420.57142857142856" y="74.66666666666666"/><use xlink:href="#gSmbnsrd0kyi3" x="420.57142857142856" y="202.66666666666666"/><use xlink:href="#gSmbnsrd0kyi3" x="128" y="458.66666666666663"/><use xlink:href="#gSmbnsrd0kyi3" x="54.857142857142854" y="458.66666666666663"/><use xlink:href="#gSmbnsrd0kyi3" x="457.1428571428571" y="10.666666666666666"/><use xlink:href="#gSmbnsrd0kyi3" x="457.1428571428571" y="522.6666666666666"/><use xlink:href="#gSmbnsrd0kyi3" x="493.71428571428567" y="416"/><use xlink:href="#gSmbnsrd0kyi3" x="-18.285714285714334" y="416"/><use xlink:href="#gSmbnsrd0kyi3" x="310.85714285714283" y="480"/><use xlink:href="#gSmbnsrd0kyi3" x="347.4285714285714" y="373.3333333333333"/><use xlink:href="#gSmbnsrd0kyi3" x="201.14285714285714" y="117.33333333333333"/><use xlink:href="#gSmbnsrd0kyi3" x="493.71428571428567" y="288"/><use xlink:href="#gSmbnsrd0kyi3" x="-18.285714285714334" y="288"/><use xlink:href="#gSmbnsrd0kyi3" x="274.2857142857143" y="117.33333333333333"/><use xlink:href="#gSmbnsrd0kyi3" x="310.85714285714283" y="181.33333333333331"/><use xlink:href="#gSmbnsrd0kyi3" x="54.857142857142854" y="373.3333333333333"/><use xlink:href="#gSmbnsrd0kyi3" x="54.857142857142854" y="202.66666666666666"/><use xlink:href="#gSmbnsrd0kyi3" x="457.1428571428571" y="266.66666666666663"/><use xlink:href="#gSmbnsrd0kyi3" x="420.57142857142856" y="416"/><use xlink:href="#gSmbnsrd0kyi3" x="237.7142857142857" y="96"/><use xlink:href="#gSmbnsrd0kyi3" x="18.285714285714285" y="394.66666666666663"/><use xlink:href="#gSmbnsrd0kyi3" x="530.2857142857143" y="394.66666666666663"/><use xlink:href="#gSmbnsrd0kyi3" x="347.4285714285714" y="202.66666666666666"/><use xlink:href="#gSmbnsrd0kyi3" x="274.2857142857143" y="32"/><use xlink:href="#gSmbnsrd0kyi3" x="164.57142857142856" y="480"/><use xlink:href="#gSmbnsrd0kyi3" x="420.57142857142856" y="458.66666666666663"/><use xlink:href="#gSmbnsrd0kyi3" x="237.7142857142857" y="181.33333333333331"/><use xlink:href="#gSmbnsrd0kyi3" x="347.4285714285714" y="74.66666666666666"/><use xlink:href="#gSmbnsrd0kyi3" x="201.14285714285714" y="501.3333333333333"/><use xlink:href="#gSmbnsrd0kyi3" x="201.14285714285714" y="-10.666666666666686"/><use xlink:href="#gSmbnsrd0kyi3" x="310.85714285714283" y="352"/><use xlink:href="#gSmbnsrd0kyi3" x="54.857142857142854" y="74.66666666666666"/><use xlink:href="#gSmbnsrd0kyi3" x="274.2857142857143" y="160"/><use xlink:href="#gSmbnsrd0kyi3" x="164.57142857142856" y="394.66666666666663"/><use xlink:href="#gSmbnsrd0kyi3" x="347.4285714285714" y="288"/><use xlink:href="#gSmbnsrd0kyi3" x="237.7142857142857" y="394.66666666666663"/><use xlink:href="#gSmbnsrd0kyi3" x="54.857142857142854" y="32"/><use xlink:href="#gSmbnsrd0kyi3" x="493.71428571428567" y="74.66666666666666"/><use xlink:href="#gSmbnsrd0kyi3" x="-18.285714285714334" y="74.66666666666666"/><use xlink:href="#gSmbnsrd0kyi3" x="310.85714285714283" y="10.666666666666666"/><use xlink:href="#gSmbnsrd0kyi3" x="310.85714285714283" y="522.6666666666666"/><use xlink:href="#gSmbnsrd0kyi3" x="347.4285714285714" y="245.33333333333331"/><use xlink:href="#gSmbnsrd0kyi3" x="128" y="501.3333333333333"/><use xlink:href="#gSmbnsrd0kyi3" x="128" y="-10.666666666666686"/><use xlink:href="#gSmbnsrd0kyi3" x="310.85714285714283" y="53.33333333333333"/><use xlink:href="#gSmbnsrd0kyi3" x="347.4285714285714" y="160"/><use xlink:href="#gSmbnsrd0kyi3" x="237.7142857142857" y="437.3333333333333"/><use xlink:href="#gSmbnsrd0kyi3" x="384" y="394.66666666666663"/><use xlink:href="#gSmbnsrd0kyi3" x="18.285714285714285" y="437.3333333333333"/><use xlink:href="#gSmbnsrd0kyi3" x="530.2857142857143" y="437.3333333333333"/><use xlink:href="#gSmbnsrd0kyi3" x="457.1428571428571" y="394.66666666666663"/><use xlink:href="#gSmbnsrd0kyi3" x="420.57142857142856" y="373.3333333333333"/><use xlink:href="#gSmbnsrd0kyi3" x="128" y="74.66666666666666"/><use xlink:href="#gSmbnsrd0kyi3" x="274.2857142857143" y="288"/><use xlink:href="#gSmbnsrd0kyi3" x="457.1428571428571" y="181.33333333333331"/><use xlink:href="#gSmbnsrd0kyi3" x="18.285714285714285" y="53.33333333333333"/><use xlink:href="#gSmbnsrd0kyi3" x="530.2857142857143" y="53.33333333333333"/><use xlink:href="#gSmbnsrd0kyi3" x="384" y="266.66666666666663"/><use xlink:href="#gSmbnsrd0kyi3" x="237.7142857142857" y="53.33333333333333"/><use xlink:href="#gSmbnsrd0kyi3" x="91.42857142857142" y="480"/><use xlink:href="#gSmbnsrd0kyi3" x="274.2857142857143" y="330.66666666666663"/><use xlink:href="#gSmbnsrd0kyi3" x="54.857142857142854" y="330.66666666666663"/><use xlink:href="#gSmbnsrd0kyi3" x="128" y="160"/><use xlink:href="#gSmbnsrd0kyi3" x="91.42857142857142" y="138.66666666666666"/><use xlink:href="#gSmbnsrd0kyi3" x="457.1428571428571" y="138.66666666666666"/><use xlink:href="#gSmbnsrd0kyi3" x="18.285714285714285" y="352"/><use xlink:href="#gSmbnsrd0kyi3" x="530.2857142857143" y="352"/><use xlink:href="#gSmbnsrd0kyi3" x="237.7142857142857" y="224"/><use xlink:href="#gSmbnsrd0kyi3" x="493.71428571428567" y="202.66666666666666"/><use xlink:href="#gSmbnsrd0kyi3" x="-18.285714285714334" y="202.66666666666666"/><use xlink:href="#gSmbnsrd0kyi3" x="201.14285714285714" y="74.66666666666666"/><use xlink:href="#gSmbnsrd0kyi3" x="54.857142857142854" y="160"/><use xlink:href="#gSmbnsrd0kyi3" x="54.857142857142854" y="501.3333333333333"/><use xlink:href="#gSmbnsrd0kyi3" x="54.857142857142854" y="-10.666666666666686"/><use xlink:href="#gSmbnsrd0kyi3" x="310.85714285714283" y="309.3333333333333"/><use xlink:href="#gSmbnsrd0kyi3" x="493.71428571428567" y="501.3333333333333"/><use xlink:href="#gSmbnsrd0kyi3" x="-18.285714285714334" y="501.3333333333333"/><use xlink:href="#gSmbnsrd0kyi3" x="-18.285714285714334" y="-10.666666666666686"/><use xlink:href="#gSmbnsrd0kyi3" x="493.71428571428567" y="-10.666666666666686"/><use xlink:href="#gSmbnsrd0kyi3" x="-18.285714285714334" y="-10.666666666666686"/><use xlink:href="#gSmbnsrd0kyi3" x="420.57142857142856" y="32"/><use xlink:href="#gSmbnsrd0kyi3" x="164.57142857142856" y="10.666666666666666"/><use xlink:href="#gSmbnsrd0kyi3" x="164.57142857142856" y="522.6666666666666"/><use xlink:href="#gSmbnsrd0kyi3" x="384" y="224"/><use xlink:href="#gSmbnsrd0kyi3" x="201.14285714285714" y="32"/><use xlink:href="#gSmbnsrd0kyi3" x="457.1428571428571" y="352"/><use xlink:href="#gSmbnsrd0kyi3" x="91.42857142857142" y="394.66666666666663"/><use xlink:href="#gSmbnsrd0kyi3" x="91.42857142857142" y="10.666666666666666"/><use xlink:href="#gSmbnsrd0kyi3" x="91.42857142857142" y="522.6666666666666"/><use xlink:href="#gSmbnsrd0kyi3" x="128" y="416"/><use xlink:href="#gSmbnsrd0kyi3" x="237.7142857142857" y="352"/><use xlink:href="#gSmbnsrd0kyi3" x="457.1428571428571" y="96"/><use xlink:href="#gSmbnsrd0kyi3" x="237.7142857142857" y="266.66666666666663"/><use xlink:href="#gSmbnsrd0kyi3" x="420.57142857142856" y="501.3333333333333"/><use xlink:href="#gSmbnsrd0kyi3" x="420.57142857142856" y="-10.666666666666686"/><use xlink:href="#gSmbnsrd0kyi3" x="384" y="181.33333333333331"/><use xlink:href="#gSmbnsrd0kyi3" x="310.85714285714283" y="394.66666666666663"/><use xlink:href="#gSmbnsrd0kyi3" x="310.85714285714283" y="437.3333333333333"/><use xlink:href="#gSmbnsrd0kyi3" x="310.85714285714283" y="138.66666666666666"/><use xlink:href="#gSmbnsrd0kyi3" x="164.57142857142856" y="138.66666666666666"/><use xlink:href="#gSmbnsrd0kyi3" x="493.71428571428567" y="160"/><use xlink:href="#gSmbnsrd0kyi3" x="-18.285714285714334" y="160"/><use xlink:href="#gSmbnsrd0kyi3" x="91.42857142857142" y="96"/><use xlink:href="#gSmbnsrd0kyi3" x="18.285714285714285" y="10.666666666666666"/><use xlink:href="#gSmbnsrd0kyi3" x="530.2857142857143" y="10.666666666666666"/><use xlink:href="#gSmbnsrd0kyi3" x="530.2857142857143" y="522.6666666666666"/><use xlink:href="#gSmbnsrd0kyi3" x="18.285714285714285" y="522.6666666666666"/><use xlink:href="#gSmbnsrd0kyi3" x="530.2857142857143" y="522.6666666666666"/><use xlink:href="#gSmbnsrd0kyi3" x="201.14285714285714" y="202.66666666666666"/><use xlink:href="#gSmbnsrd0kyi3" x="18.285714285714285" y="96"/><use xlink:href="#gSmbnsrd0kyi3" x="530.2857142857143" y="96"/><use xlink:href="#gSmbnsrd0kyi3" x="54.857142857142854" y="245.33333333333331"/><use xlink:href="#gSmbnsrd0kyi3" x="164.57142857142856" y="352"/><use xlink:href="#gSmbnsrd0kyi3" x="91.42857142857142" y="181.33333333333331"/><use xlink:href="#gSmbnsrd0kyi3" x="420.57142857142856" y="160"/><use xlink:href="#gSmbnsrd0kyi3" x="347.4285714285714" y="117.33333333333333"/><use xlink:href="#gSmbnsrd0kyi3" x="128" y="373.3333333333333"/><use xlink:href="#gSmbnsrd0kyi3" x="384" y="480"/><use xlink:href="#gSmbnsrd0kyi3" x="457.1428571428571" y="480"/><use xlink:href="#gSmbnsrd0kyi3" x="420.57142857142856" y="330.66666666666663"/><use xlink:href="#gSmbnsrd0kyi3" x="493.71428571428567" y="458.66666666666663"/><use xlink:href="#gSmbnsrd0kyi3" x="-18.285714285714334" y="458.66666666666663"/><use xlink:href="#gSmbnsrd0kyi3" x="274.2857142857143" y="74.66666666666666"/><use xlink:href="#gSmbnsrd0kyi3" x="91.42857142857142" y="53.33333333333333"/><use xlink:href="#gSmbnsrd0kyi3" x="18.285714285714285" y="138.66666666666666"/><use xlink:href="#gSmbnsrd0kyi3" x="530.2857142857143" y="138.66666666666666"/><use xlink:href="#gSmbnsrd0kyi3" x="91.42857142857142" y="266.66666666666663"/><use xlink:href="#gSmbnsrd0kyi3" x="164.57142857142856" y="266.66666666666663"/><use xlink:href="#gSmbnsrd0kyi3" x="201.14285714285714" y="160"/><use xlink:href="#gSmbnsrd0kyi3" x="420.57142857142856" y="117.33333333333333"/><use xlink:href="#gSmbnsrd0kyi3" x="493.71428571428567" y="32"/><use xlink:href="#gSmbnsrd0kyi3" x="-18.285714285714334" y="32"/><use xlink:href="#gSmbnsrd0kyi3" x="201.14285714285714" y="245.33333333333331"/><use xlink:href="#gSmbnsrd0kyi3" x="164.57142857142856" y="96"/><use xlink:href="#gSmbnsrd0kyi3" x="128" y="288"/></g>
			<desc>Created with Snap</desc></svg>
