<?xml version="1.0" encoding="UTF-8" standalone="no"?>
<svg
   xmlns:dc="http://purl.org/dc/elements/1.1/"
   xmlns:cc="http://creativecommons.org/ns#"
   xmlns:rdf="http://www.w3.org/1999/02/22-rdf-syntax-ns#"
   xmlns:svg="http://www.w3.org/2000/svg"
   xmlns="http://www.w3.org/2000/svg"
   xmlns:xlink="http://www.w3.org/1999/xlink"
   id="Svg"
   width="256"
   height="256"
   version="1.1">
				<defs>
					<clipPath id="clipPath">
						
					<rect x="0" y="0" width="256" height="256"/></clipPath>
				<g transform="matrix(1,0,0,1,-4,-5)" id="gSlb3necomwf"><g><path d="M 7.5507812 7.0234375 C 5.9214709 7.0234375 5.0175781 8.6305509 5.0175781 9.5234375 C 5.0175781 10.635743 5.5940176 11.440851 6.4550781 11.804688 L 6.6738281 11.259766 C 5.9776325 11.18261 5.5175781 10.286285 5.5175781 9.5234375 C 5.5175781 8.2733962 6.6124058 7.5234375 7.5175781 7.5234375 C 8.5175781 7.5234375 9.0175781 8.5234375 9.0175781 9.5234375 C 9.0175781 10.109674 8.8553191 10.689908 8.0722656 10.917969 L 8.3515625 11.964844 C 9.4058241 11.763078 10.017578 10.991412 10.017578 9.7734375 C 10.017578 7.8090868 8.6369882 7.0234375 7.5507812 7.0234375 z M 10.929688 11.5 A 1 0.25 0 0 0 10 11.75 A 1 0.25 0 0 0 11 12 A 1 0.25 0 0 0 12 11.75 A 1 0.25 0 0 0 11 11.5 A 1 0.25 0 0 0 10.929688 11.5 z "/></g></g><g transform="matrix(1,0,0,1,-4,-5)" id="gSlb3necomwg"><defs id="defs3070"/><g id="layer1"><g id="g846" transform="translate(2.5)"><circle id="circle876" cx="2.9000001" cy="2.9000001" r="0.8"/><circle id="circle878" cx="7.0999999" cy="2.9000001" r="0.8"/></g></g></g></defs>
				<g id="Pattern" style="fill-opacity:1"
     clip-path="url(#clipPath)">
				<use xlink:href="#gSlb3necomwf"  x="37" y="172"/><use xlink:href="#gSlb3necomwg"  x="223" y="140"/><use xlink:href="#gSlb3necomwg"  x="63" y="114"/><use xlink:href="#gSlb3necomwg"  x="12" y="165"/><use xlink:href="#gSlb3necomwg"  x="268" y="165"/><use xlink:href="#gSlb3necomwg"  x="121" y="37"/><use xlink:href="#gSlb3necomwf"  x="18" y="242"/><use xlink:href="#gSlb3necomwf"  x="274" y="242"/><use xlink:href="#gSlb3necomwf"  x="274" y="-14"/><use xlink:href="#gSlb3necomwf"  x="18" y="-14"/><use xlink:href="#gSlb3necomwf"  x="274" y="-14"/><use xlink:href="#gSlb3necomwg"  x="140" y="121"/><use xlink:href="#gSlb3necomwf"  x="44" y="44"/><use xlink:href="#gSlb3necomwf"  x="191" y="223"/><use xlink:href="#gSlb3necomwf"  x="140" y="70"/><use xlink:href="#gSlb3necomwf"  x="63" y="165"/><use xlink:href="#gSlb3necomwg"  x="89" y="121"/><use xlink:href="#gSlb3necomwf"  x="223" y="242"/><use xlink:href="#gSlb3necomwf"  x="223" y="-14"/><use xlink:href="#gSlb3necomwg"  x="146" y="198"/><use xlink:href="#gSlb3necomwf"  x="70" y="37"/><use xlink:href="#gSlb3necomwg"  x="223" y="191"/><use xlink:href="#gSlb3necomwg"  x="191" y="70"/><use xlink:href="#gSlb3necomwf"  x="114" y="114"/><use xlink:href="#gSlb3necomwf"  x="191" y="172"/><use xlink:href="#gSlb3necomwf"  x="223" y="89"/><use xlink:href="#gSlb3necomwf"  x="63" y="12"/><use xlink:href="#gSlb3necomwf"  x="63" y="268"/><use xlink:href="#gSlb3necomwf"  x="172" y="89"/><use xlink:href="#gSlb3necomwg"  x="172" y="140"/><use xlink:href="#gSlb3necomwg"  x="249" y="44"/><use xlink:href="#gSlb3necomwg"  x="-7" y="44"/><use xlink:href="#gSlb3necomwf"  x="165" y="216"/><use xlink:href="#gSlb3necomwf"  x="165" y="165"/><use xlink:href="#gSlb3necomwf"  x="70" y="140"/><use xlink:href="#gSlb3necomwg"  x="37" y="70"/><use xlink:href="#gSlb3necomwf"  x="114" y="165"/><use xlink:href="#gSlb3necomwg"  x="140" y="172"/><use xlink:href="#gSlb3necomwg"  x="37" y="223"/><use xlink:href="#gSlb3necomwg"  x="44" y="146"/><use xlink:href="#gSlb3necomwf"  x="89" y="18"/><use xlink:href="#gSlb3necomwf"  x="89" y="274"/><use xlink:href="#gSlb3necomwf"  x="95" y="198"/><use xlink:href="#gSlb3necomwg"  x="172" y="37"/><use xlink:href="#gSlb3necomwf"  x="198" y="44"/><use xlink:href="#gSlb3necomwf"  x="95" y="249"/><use xlink:href="#gSlb3necomwf"  x="95" y="-7"/><use xlink:href="#gSlb3necomwf"  x="63" y="63"/><use xlink:href="#gSlb3necomwf"  x="242" y="223"/><use xlink:href="#gSlb3necomwf"  x="-14" y="223"/><use xlink:href="#gSlb3necomwf"  x="12" y="114"/><use xlink:href="#gSlb3necomwf"  x="268" y="114"/><use xlink:href="#gSlb3necomwf"  x="165" y="114"/><use xlink:href="#gSlb3necomwf"  x="216" y="216"/><use xlink:href="#gSlb3necomwg"  x="37" y="18"/><use xlink:href="#gSlb3necomwg"  x="37" y="274"/><use xlink:href="#gSlb3necomwg"  x="249" y="198"/><use xlink:href="#gSlb3necomwg"  x="-7" y="198"/><use xlink:href="#gSlb3necomwg"  x="18" y="89"/><use xlink:href="#gSlb3necomwg"  x="274" y="89"/><use xlink:href="#gSlb3necomwf"  x="89" y="172"/><use xlink:href="#gSlb3necomwf"  x="95" y="146"/><use xlink:href="#gSlb3necomwg"  x="146" y="146"/><use xlink:href="#gSlb3necomwg"  x="191" y="121"/><use xlink:href="#gSlb3necomwf"  x="216" y="165"/><use xlink:href="#gSlb3necomwg"  x="216" y="12"/><use xlink:href="#gSlb3necomwg"  x="216" y="268"/><use xlink:href="#gSlb3necomwg"  x="172" y="242"/><use xlink:href="#gSlb3necomwg"  x="172" y="-14"/><use xlink:href="#gSlb3necomwg"  x="216" y="63"/><use xlink:href="#gSlb3necomwg"  x="140" y="18"/><use xlink:href="#gSlb3necomwg"  x="140" y="274"/><use xlink:href="#gSlb3necomwf"  x="70" y="89"/><use xlink:href="#gSlb3necomwf"  x="249" y="146"/><use xlink:href="#gSlb3necomwf"  x="-7" y="146"/><use xlink:href="#gSlb3necomwg"  x="114" y="63"/><use xlink:href="#gSlb3necomwf"  x="121" y="140"/><use xlink:href="#gSlb3necomwg"  x="44" y="198"/><use xlink:href="#gSlb3necomwg"  x="172" y="191"/><use xlink:href="#gSlb3necomwf"  x="198" y="249"/><use xlink:href="#gSlb3necomwf"  x="198" y="-7"/><use xlink:href="#gSlb3necomwf"  x="18" y="37"/><use xlink:href="#gSlb3necomwf"  x="274" y="37"/><use xlink:href="#gSlb3necomwg"  x="223" y="37"/><use xlink:href="#gSlb3necomwg"  x="121" y="89"/><use xlink:href="#gSlb3necomwf"  x="198" y="95"/><use xlink:href="#gSlb3necomwf"  x="70" y="191"/><use xlink:href="#gSlb3necomwg"  x="12" y="12"/><use xlink:href="#gSlb3necomwg"  x="268" y="12"/><use xlink:href="#gSlb3necomwg"  x="268" y="268"/><use xlink:href="#gSlb3necomwg"  x="12" y="268"/><use xlink:href="#gSlb3necomwg"  x="268" y="268"/><use xlink:href="#gSlb3necomwf"  x="63" y="216"/><use xlink:href="#gSlb3necomwg"  x="121" y="242"/><use xlink:href="#gSlb3necomwg"  x="121" y="-14"/><use xlink:href="#gSlb3necomwf"  x="18" y="191"/><use xlink:href="#gSlb3necomwf"  x="274" y="191"/><use xlink:href="#gSlb3necomwf"  x="198" y="198"/><use xlink:href="#gSlb3necomwg"  x="44" y="95"/><use xlink:href="#gSlb3necomwg"  x="198" y="146"/><use xlink:href="#gSlb3necomwf"  x="165" y="12"/><use xlink:href="#gSlb3necomwf"  x="165" y="268"/><use xlink:href="#gSlb3necomwg"  x="89" y="70"/><use xlink:href="#gSlb3necomwf"  x="191" y="18"/><use xlink:href="#gSlb3necomwf"  x="191" y="274"/><use xlink:href="#gSlb3necomwg"  x="114" y="216"/><use xlink:href="#gSlb3necomwf"  x="216" y="114"/><use xlink:href="#gSlb3necomwf"  x="70" y="242"/><use xlink:href="#gSlb3necomwf"  x="70" y="-14"/><use xlink:href="#gSlb3necomwf"  x="146" y="95"/><use xlink:href="#gSlb3necomwg"  x="165" y="63"/><use xlink:href="#gSlb3necomwf"  x="95" y="95"/><use xlink:href="#gSlb3necomwg"  x="114" y="12"/><use xlink:href="#gSlb3necomwg"  x="114" y="268"/><use xlink:href="#gSlb3necomwg"  x="121" y="191"/><use xlink:href="#gSlb3necomwg"  x="44" y="249"/><use xlink:href="#gSlb3necomwg"  x="44" y="-7"/><use xlink:href="#gSlb3necomwf"  x="12" y="63"/><use xlink:href="#gSlb3necomwf"  x="268" y="63"/><use xlink:href="#gSlb3necomwg"  x="242" y="172"/><use xlink:href="#gSlb3necomwg"  x="-14" y="172"/><use xlink:href="#gSlb3necomwg"  x="242" y="18"/><use xlink:href="#gSlb3necomwg"  x="-14" y="18"/><use xlink:href="#gSlb3necomwg"  x="-14" y="274"/><use xlink:href="#gSlb3necomwg"  x="242" y="274"/><use xlink:href="#gSlb3necomwg"  x="-14" y="274"/><use xlink:href="#gSlb3necomwg"  x="146" y="249"/><use xlink:href="#gSlb3necomwg"  x="146" y="-7"/><use xlink:href="#gSlb3necomwf"  x="242" y="70"/><use xlink:href="#gSlb3necomwf"  x="-14" y="70"/><use xlink:href="#gSlb3necomwg"  x="18" y="140"/><use xlink:href="#gSlb3necomwg"  x="274" y="140"/><use xlink:href="#gSlb3necomwf"  x="37" y="121"/><use xlink:href="#gSlb3necomwf"  x="146" y="44"/><use xlink:href="#gSlb3necomwf"  x="140" y="223"/><use xlink:href="#gSlb3necomwf"  x="95" y="44"/><use xlink:href="#gSlb3necomwg"  x="249" y="249"/><use xlink:href="#gSlb3necomwg"  x="-7" y="249"/><use xlink:href="#gSlb3necomwg"  x="-7" y="-7"/><use xlink:href="#gSlb3necomwg"  x="249" y="-7"/><use xlink:href="#gSlb3necomwg"  x="-7" y="-7"/><use xlink:href="#gSlb3necomwg"  x="12" y="216"/><use xlink:href="#gSlb3necomwg"  x="268" y="216"/><use xlink:href="#gSlb3necomwg"  x="89" y="223"/><use xlink:href="#gSlb3necomwf"  x="242" y="121"/><use xlink:href="#gSlb3necomwf"  x="-14" y="121"/><use xlink:href="#gSlb3necomwf"  x="249" y="95"/><use xlink:href="#gSlb3necomwf"  x="-7" y="95"/></g>
			<desc>Created with Snap</desc></svg>
