<?xml version="1.0" encoding="UTF-8" standalone="no"?>
<svg
   xmlns:dc="http://purl.org/dc/elements/1.1/"
   xmlns:cc="http://creativecommons.org/ns#"
   xmlns:rdf="http://www.w3.org/1999/02/22-rdf-syntax-ns#"
   xmlns:svg="http://www.w3.org/2000/svg"
   xmlns="http://www.w3.org/2000/svg"
   version="1.1"
   height="512"
   width="512"
   id="Svg">
  <metadata
     id="metadata186">
    <rdf:RDF>
      <cc:Work
         rdf:about="">
        <dc:format>image/svg+xml</dc:format>
        <dc:type
           rdf:resource="http://purl.org/dc/dcmitype/StillImage" />
      </cc:Work>
    </rdf:RDF>
  </metadata>
  <defs
     id="defs10" />
  <path
     id="path272"
     d="M 30 26 A 2 2 0 0 0 28 28 L 28 33 L 26 33 L 26 34 L 34 34 L 34 33 L 32 33 L 32 28 A 2 2 0 0 0 30 26 z M 158 26 A 2 2 0 0 0 156 28 L 156 33 L 154 33 L 154 34 L 162 34 L 162 33 L 160 33 L 160 28 A 2 2 0 0 0 158 26 z M 286 26 A 2 2 0 0 0 284 28 L 284 33 L 282 33 L 282 34 L 290 34 L 290 33 L 288 33 L 288 28 A 2 2 0 0 0 286 26 z M 414 26 A 2 2 0 0 0 412 28 L 412 33 L 410 33 L 410 34 L 418 34 L 418 33 L 416 33 L 416 28 A 2 2 0 0 0 414 26 z M 94 43 A 2 2 0 0 0 92 45 L 92 50 L 90 50 L 90 51 L 98 51 L 98 50 L 96 50 L 96 45 A 2 2 0 0 0 94 43 z M 222 43 A 2 2 0 0 0 220 45 L 220 50 L 218 50 L 218 51 L 226 51 L 226 50 L 224 50 L 224 45 A 2 2 0 0 0 222 43 z M 350 43 A 2 2 0 0 0 348 45 L 348 50 L 346 50 L 346 51 L 354 51 L 354 50 L 352 50 L 352 45 A 2 2 0 0 0 350 43 z M 478 43 A 2 2 0 0 0 476 45 L 476 50 L 474 50 L 474 51 L 482 51 L 482 50 L 480 50 L 480 45 A 2 2 0 0 0 478 43 z M 47 90 A 2 2 0 0 0 45 92 L 45 97 L 43 97 L 43 98 L 51 98 L 51 97 L 49 97 L 49 92 A 2 2 0 0 0 47 90 z M 175 90 A 2 2 0 0 0 173 92 L 173 97 L 171 97 L 171 98 L 179 98 L 179 97 L 177 97 L 177 92 A 2 2 0 0 0 175 90 z M 303 90 A 2 2 0 0 0 301 92 L 301 97 L 299 97 L 299 98 L 307 98 L 307 97 L 305 97 L 305 92 A 2 2 0 0 0 303 90 z M 431 90 A 2 2 0 0 0 429 92 L 429 97 L 427 97 L 427 98 L 435 98 L 435 97 L 433 97 L 433 92 A 2 2 0 0 0 431 90 z M 111 107 A 2 2 0 0 0 109 109 L 109 114 L 107 114 L 107 115 L 115 115 L 115 114 L 113 114 L 113 109 A 2 2 0 0 0 111 107 z M 239 107 A 2 2 0 0 0 237 109 L 237 114 L 235 114 L 235 115 L 243 115 L 243 114 L 241 114 L 241 109 A 2 2 0 0 0 239 107 z M 367 107 A 2 2 0 0 0 365 109 L 365 114 L 363 114 L 363 115 L 371 115 L 371 114 L 369 114 L 369 109 A 2 2 0 0 0 367 107 z M 495 107 A 2 2 0 0 0 493 109 L 493 114 L 491 114 L 491 115 L 499 115 L 499 114 L 497 114 L 497 109 A 2 2 0 0 0 495 107 z M 30 154 A 2 2 0 0 0 28 156 L 28 161 L 26 161 L 26 162 L 34 162 L 34 161 L 32 161 L 32 156 A 2 2 0 0 0 30 154 z M 158 154 A 2 2 0 0 0 156 156 L 156 161 L 154 161 L 154 162 L 162 162 L 162 161 L 160 161 L 160 156 A 2 2 0 0 0 158 154 z M 286 154 A 2 2 0 0 0 284 156 L 284 161 L 282 161 L 282 162 L 290 162 L 290 161 L 288 161 L 288 156 A 2 2 0 0 0 286 154 z M 414 154 A 2 2 0 0 0 412 156 L 412 161 L 410 161 L 410 162 L 418 162 L 418 161 L 416 161 L 416 156 A 2 2 0 0 0 414 154 z M 94 171 A 2 2 0 0 0 92 173 L 92 178 L 90 178 L 90 179 L 98 179 L 98 178 L 96 178 L 96 173 A 2 2 0 0 0 94 171 z M 222 171 A 2 2 0 0 0 220 173 L 220 178 L 218 178 L 218 179 L 226 179 L 226 178 L 224 178 L 224 173 A 2 2 0 0 0 222 171 z M 350 171 A 2 2 0 0 0 348 173 L 348 178 L 346 178 L 346 179 L 354 179 L 354 178 L 352 178 L 352 173 A 2 2 0 0 0 350 171 z M 478 171 A 2 2 0 0 0 476 173 L 476 178 L 474 178 L 474 179 L 482 179 L 482 178 L 480 178 L 480 173 A 2 2 0 0 0 478 171 z M 47 218 A 2 2 0 0 0 45 220 L 45 225 L 43 225 L 43 226 L 51 226 L 51 225 L 49 225 L 49 220 A 2 2 0 0 0 47 218 z M 175 218 A 2 2 0 0 0 173 220 L 173 225 L 171 225 L 171 226 L 179 226 L 179 225 L 177 225 L 177 220 A 2 2 0 0 0 175 218 z M 303 218 A 2 2 0 0 0 301 220 L 301 225 L 299 225 L 299 226 L 307 226 L 307 225 L 305 225 L 305 220 A 2 2 0 0 0 303 218 z M 431 218 A 2 2 0 0 0 429 220 L 429 225 L 427 225 L 427 226 L 435 226 L 435 225 L 433 225 L 433 220 A 2 2 0 0 0 431 218 z M 111 235 A 2 2 0 0 0 109 237 L 109 242 L 107 242 L 107 243 L 115 243 L 115 242 L 113 242 L 113 237 A 2 2 0 0 0 111 235 z M 239 235 A 2 2 0 0 0 237 237 L 237 242 L 235 242 L 235 243 L 243 243 L 243 242 L 241 242 L 241 237 A 2 2 0 0 0 239 235 z M 367 235 A 2 2 0 0 0 365 237 L 365 242 L 363 242 L 363 243 L 371 243 L 371 242 L 369 242 L 369 237 A 2 2 0 0 0 367 235 z M 495 235 A 2 2 0 0 0 493 237 L 493 242 L 491 242 L 491 243 L 499 243 L 499 242 L 497 242 L 497 237 A 2 2 0 0 0 495 235 z M 30 282 A 2 2 0 0 0 28 284 L 28 289 L 26 289 L 26 290 L 34 290 L 34 289 L 32 289 L 32 284 A 2 2 0 0 0 30 282 z M 158 282 A 2 2 0 0 0 156 284 L 156 289 L 154 289 L 154 290 L 162 290 L 162 289 L 160 289 L 160 284 A 2 2 0 0 0 158 282 z M 286 282 A 2 2 0 0 0 284 284 L 284 289 L 282 289 L 282 290 L 290 290 L 290 289 L 288 289 L 288 284 A 2 2 0 0 0 286 282 z M 414 282 A 2 2 0 0 0 412 284 L 412 289 L 410 289 L 410 290 L 418 290 L 418 289 L 416 289 L 416 284 A 2 2 0 0 0 414 282 z M 94 299 A 2 2 0 0 0 92 301 L 92 306 L 90 306 L 90 307 L 98 307 L 98 306 L 96 306 L 96 301 A 2 2 0 0 0 94 299 z M 222 299 A 2 2 0 0 0 220 301 L 220 306 L 218 306 L 218 307 L 226 307 L 226 306 L 224 306 L 224 301 A 2 2 0 0 0 222 299 z M 350 299 A 2 2 0 0 0 348 301 L 348 306 L 346 306 L 346 307 L 354 307 L 354 306 L 352 306 L 352 301 A 2 2 0 0 0 350 299 z M 478 299 A 2 2 0 0 0 476 301 L 476 306 L 474 306 L 474 307 L 482 307 L 482 306 L 480 306 L 480 301 A 2 2 0 0 0 478 299 z M 47 346 A 2 2 0 0 0 45 348 L 45 353 L 43 353 L 43 354 L 51 354 L 51 353 L 49 353 L 49 348 A 2 2 0 0 0 47 346 z M 175 346 A 2 2 0 0 0 173 348 L 173 353 L 171 353 L 171 354 L 179 354 L 179 353 L 177 353 L 177 348 A 2 2 0 0 0 175 346 z M 303 346 A 2 2 0 0 0 301 348 L 301 353 L 299 353 L 299 354 L 307 354 L 307 353 L 305 353 L 305 348 A 2 2 0 0 0 303 346 z M 431 346 A 2 2 0 0 0 429 348 L 429 353 L 427 353 L 427 354 L 435 354 L 435 353 L 433 353 L 433 348 A 2 2 0 0 0 431 346 z M 111 363 A 2 2 0 0 0 109 365 L 109 370 L 107 370 L 107 371 L 115 371 L 115 370 L 113 370 L 113 365 A 2 2 0 0 0 111 363 z M 239 363 A 2 2 0 0 0 237 365 L 237 370 L 235 370 L 235 371 L 243 371 L 243 370 L 241 370 L 241 365 A 2 2 0 0 0 239 363 z M 367 363 A 2 2 0 0 0 365 365 L 365 370 L 363 370 L 363 371 L 371 371 L 371 370 L 369 370 L 369 365 A 2 2 0 0 0 367 363 z M 495 363 A 2 2 0 0 0 493 365 L 493 370 L 491 370 L 491 371 L 499 371 L 499 370 L 497 370 L 497 365 A 2 2 0 0 0 495 363 z M 30 410 A 2 2 0 0 0 28 412 L 28 417 L 26 417 L 26 418 L 34 418 L 34 417 L 32 417 L 32 412 A 2 2 0 0 0 30 410 z M 158 410 A 2 2 0 0 0 156 412 L 156 417 L 154 417 L 154 418 L 162 418 L 162 417 L 160 417 L 160 412 A 2 2 0 0 0 158 410 z M 286 410 A 2 2 0 0 0 284 412 L 284 417 L 282 417 L 282 418 L 290 418 L 290 417 L 288 417 L 288 412 A 2 2 0 0 0 286 410 z M 414 410 A 2 2 0 0 0 412 412 L 412 417 L 410 417 L 410 418 L 418 418 L 418 417 L 416 417 L 416 412 A 2 2 0 0 0 414 410 z M 94 427 A 2 2 0 0 0 92 429 L 92 434 L 90 434 L 90 435 L 98 435 L 98 434 L 96 434 L 96 429 A 2 2 0 0 0 94 427 z M 222 427 A 2 2 0 0 0 220 429 L 220 434 L 218 434 L 218 435 L 226 435 L 226 434 L 224 434 L 224 429 A 2 2 0 0 0 222 427 z M 350 427 A 2 2 0 0 0 348 429 L 348 434 L 346 434 L 346 435 L 354 435 L 354 434 L 352 434 L 352 429 A 2 2 0 0 0 350 427 z M 478 427 A 2 2 0 0 0 476 429 L 476 434 L 474 434 L 474 435 L 482 435 L 482 434 L 480 434 L 480 429 A 2 2 0 0 0 478 427 z M 47 474 A 2 2 0 0 0 45 476 L 45 481 L 43 481 L 43 482 L 51 482 L 51 481 L 49 481 L 49 476 A 2 2 0 0 0 47 474 z M 175 474 A 2 2 0 0 0 173 476 L 173 481 L 171 481 L 171 482 L 179 482 L 179 481 L 177 481 L 177 476 A 2 2 0 0 0 175 474 z M 303 474 A 2 2 0 0 0 301 476 L 301 481 L 299 481 L 299 482 L 307 482 L 307 481 L 305 481 L 305 476 A 2 2 0 0 0 303 474 z M 431 474 A 2 2 0 0 0 429 476 L 429 481 L 427 481 L 427 482 L 435 482 L 435 481 L 433 481 L 433 476 A 2 2 0 0 0 431 474 z M 111 491 A 2 2 0 0 0 109 493 L 109 498 L 107 498 L 107 499 L 115 499 L 115 498 L 113 498 L 113 493 A 2 2 0 0 0 111 491 z M 239 491 A 2 2 0 0 0 237 493 L 237 498 L 235 498 L 235 499 L 243 499 L 243 498 L 241 498 L 241 493 A 2 2 0 0 0 239 491 z M 367 491 A 2 2 0 0 0 365 493 L 365 498 L 363 498 L 363 499 L 371 499 L 371 498 L 369 498 L 369 493 A 2 2 0 0 0 367 491 z M 495 491 A 2 2 0 0 0 493 493 L 493 498 L 491 498 L 491 499 L 499 499 L 499 498 L 497 498 L 497 493 A 2 2 0 0 0 495 491 z " />
  <rect
     style="fill:none;fill-opacity:1;stroke:none"
     id="rect8566"
     y="0"
     x="0"
     rx="0"
     height="512"
     width="512" />
  <desc
     id="desc181">Created with Snap</desc>
</svg>
