<?xml version="1.0" encoding="UTF-8" standalone="no"?>
<svg
   xmlns:dc="http://purl.org/dc/elements/1.1/"
   xmlns:cc="http://creativecommons.org/ns#"
   xmlns:rdf="http://www.w3.org/1999/02/22-rdf-syntax-ns#"
   xmlns:svg="http://www.w3.org/2000/svg"
   xmlns="http://www.w3.org/2000/svg"
   xmlns:xlink="http://www.w3.org/1999/xlink"
   id="Svg"
   width="512"
   height="512"
   version="1.1">
				<defs>
					<clipPath id="clipPath">
						
					<rect x="0" y="0" width="512" height="512"/></clipPath>
				<g transform="matrix(1,0,0,1,-5,-3)" id="gSmbnsrd0kvo1"><g id="g1765">
      <circle style="fill:#000000;fill-opacity:1;stroke:none;stroke-width:0.397628;stroke-linecap:round;stroke-linejoin:bevel;stroke-miterlimit:4;stroke-dasharray:none;stroke-opacity:1" id="circle1759" cx="3" cy="4.914" r="1"/>
      <circle style="fill:#000000;fill-opacity:1;stroke:none;stroke-width:0.397628;stroke-linecap:round;stroke-linejoin:bevel;stroke-miterlimit:4;stroke-dasharray:none;stroke-opacity:1" id="circle1761" cx="5" cy="1.45" r="1"/>
      <circle style="fill:#000000;fill-opacity:1;stroke:none;stroke-width:0.397628;stroke-linecap:round;stroke-linejoin:bevel;stroke-miterlimit:4;stroke-dasharray:none;stroke-opacity:1" id="circle1763" cx="7" cy="4.914" r="1"/>
    </g></g></defs>
				<g id="Pattern" style="clip-path: url(#clipPath);">
				<use xlink:href="#gSmbnsrd0kvo1" x="309.3333333333333" y="457.1428571428571"/><use xlink:href="#gSmbnsrd0kvo1" x="74.66666666666666" y="347.4285714285714"/><use xlink:href="#gSmbnsrd0kvo1" x="501.3333333333333" y="128"/><use xlink:href="#gSmbnsrd0kvo1" x="-10.666666666666686" y="128"/><use xlink:href="#gSmbnsrd0kvo1" x="458.66666666666663" y="128"/><use xlink:href="#gSmbnsrd0kvo1" x="373.3333333333333" y="493.71428571428567"/><use xlink:href="#gSmbnsrd0kvo1" x="373.3333333333333" y="-18.285714285714334"/><use xlink:href="#gSmbnsrd0kvo1" x="160" y="128"/><use xlink:href="#gSmbnsrd0kvo1" x="288" y="274.2857142857143"/><use xlink:href="#gSmbnsrd0kvo1" x="416" y="274.2857142857143"/><use xlink:href="#gSmbnsrd0kvo1" x="53.33333333333333" y="457.1428571428571"/><use xlink:href="#gSmbnsrd0kvo1" x="437.3333333333333" y="310.85714285714283"/><use xlink:href="#gSmbnsrd0kvo1" x="138.66666666666666" y="457.1428571428571"/><use xlink:href="#gSmbnsrd0kvo1" x="53.33333333333333" y="18.285714285714285"/><use xlink:href="#gSmbnsrd0kvo1" x="53.33333333333333" y="530.2857142857143"/><use xlink:href="#gSmbnsrd0kvo1" x="53.33333333333333" y="384"/><use xlink:href="#gSmbnsrd0kvo1" x="138.66666666666666" y="164.57142857142856"/><use xlink:href="#gSmbnsrd0kvo1" x="138.66666666666666" y="384"/><use xlink:href="#gSmbnsrd0kvo1" x="245.33333333333331" y="201.14285714285714"/><use xlink:href="#gSmbnsrd0kvo1" x="53.33333333333333" y="91.42857142857142"/><use xlink:href="#gSmbnsrd0kvo1" x="160" y="54.857142857142854"/><use xlink:href="#gSmbnsrd0kvo1" x="181.33333333333331" y="91.42857142857142"/><use xlink:href="#gSmbnsrd0kvo1" x="181.33333333333331" y="18.285714285714285"/><use xlink:href="#gSmbnsrd0kvo1" x="181.33333333333331" y="530.2857142857143"/><use xlink:href="#gSmbnsrd0kvo1" x="437.3333333333333" y="164.57142857142856"/><use xlink:href="#gSmbnsrd0kvo1" x="394.66666666666663" y="18.285714285714285"/><use xlink:href="#gSmbnsrd0kvo1" x="394.66666666666663" y="530.2857142857143"/><use xlink:href="#gSmbnsrd0kvo1" x="10.666666666666666" y="91.42857142857142"/><use xlink:href="#gSmbnsrd0kvo1" x="522.6666666666666" y="91.42857142857142"/><use xlink:href="#gSmbnsrd0kvo1" x="160" y="420.57142857142856"/><use xlink:href="#gSmbnsrd0kvo1" x="458.66666666666663" y="493.71428571428567"/><use xlink:href="#gSmbnsrd0kvo1" x="458.66666666666663" y="-18.285714285714334"/><use xlink:href="#gSmbnsrd0kvo1" x="53.33333333333333" y="237.7142857142857"/><use xlink:href="#gSmbnsrd0kvo1" x="138.66666666666666" y="18.285714285714285"/><use xlink:href="#gSmbnsrd0kvo1" x="138.66666666666666" y="530.2857142857143"/><use xlink:href="#gSmbnsrd0kvo1" x="245.33333333333331" y="128"/><use xlink:href="#gSmbnsrd0kvo1" x="394.66666666666663" y="164.57142857142856"/><use xlink:href="#gSmbnsrd0kvo1" x="10.666666666666666" y="457.1428571428571"/><use xlink:href="#gSmbnsrd0kvo1" x="522.6666666666666" y="457.1428571428571"/><use xlink:href="#gSmbnsrd0kvo1" x="117.33333333333333" y="274.2857142857143"/><use xlink:href="#gSmbnsrd0kvo1" x="309.3333333333333" y="164.57142857142856"/><use xlink:href="#gSmbnsrd0kvo1" x="224" y="384"/><use xlink:href="#gSmbnsrd0kvo1" x="10.666666666666666" y="384"/><use xlink:href="#gSmbnsrd0kvo1" x="522.6666666666666" y="384"/><use xlink:href="#gSmbnsrd0kvo1" x="32" y="128"/><use xlink:href="#gSmbnsrd0kvo1" x="74.66666666666666" y="420.57142857142856"/><use xlink:href="#gSmbnsrd0kvo1" x="266.66666666666663" y="384"/><use xlink:href="#gSmbnsrd0kvo1" x="53.33333333333333" y="164.57142857142856"/><use xlink:href="#gSmbnsrd0kvo1" x="32" y="54.857142857142854"/><use xlink:href="#gSmbnsrd0kvo1" x="394.66666666666663" y="384"/><use xlink:href="#gSmbnsrd0kvo1" x="266.66666666666663" y="457.1428571428571"/><use xlink:href="#gSmbnsrd0kvo1" x="224" y="91.42857142857142"/><use xlink:href="#gSmbnsrd0kvo1" x="288" y="201.14285714285714"/><use xlink:href="#gSmbnsrd0kvo1" x="202.66666666666666" y="201.14285714285714"/><use xlink:href="#gSmbnsrd0kvo1" x="288" y="54.857142857142854"/><use xlink:href="#gSmbnsrd0kvo1" x="138.66666666666666" y="310.85714285714283"/><use xlink:href="#gSmbnsrd0kvo1" x="160" y="493.71428571428567"/><use xlink:href="#gSmbnsrd0kvo1" x="160" y="-18.285714285714334"/><use xlink:href="#gSmbnsrd0kvo1" x="160" y="347.4285714285714"/><use xlink:href="#gSmbnsrd0kvo1" x="117.33333333333333" y="493.71428571428567"/><use xlink:href="#gSmbnsrd0kvo1" x="117.33333333333333" y="-18.285714285714334"/><use xlink:href="#gSmbnsrd0kvo1" x="266.66666666666663" y="91.42857142857142"/><use xlink:href="#gSmbnsrd0kvo1" x="458.66666666666663" y="201.14285714285714"/><use xlink:href="#gSmbnsrd0kvo1" x="480" y="310.85714285714283"/><use xlink:href="#gSmbnsrd0kvo1" x="96" y="164.57142857142856"/><use xlink:href="#gSmbnsrd0kvo1" x="309.3333333333333" y="237.7142857142857"/><use xlink:href="#gSmbnsrd0kvo1" x="245.33333333333331" y="54.857142857142854"/><use xlink:href="#gSmbnsrd0kvo1" x="352" y="384"/><use xlink:href="#gSmbnsrd0kvo1" x="32" y="201.14285714285714"/><use xlink:href="#gSmbnsrd0kvo1" x="352" y="457.1428571428571"/><use xlink:href="#gSmbnsrd0kvo1" x="330.66666666666663" y="201.14285714285714"/><use xlink:href="#gSmbnsrd0kvo1" x="181.33333333333331" y="164.57142857142856"/><use xlink:href="#gSmbnsrd0kvo1" x="394.66666666666663" y="310.85714285714283"/><use xlink:href="#gSmbnsrd0kvo1" x="74.66666666666666" y="54.857142857142854"/><use xlink:href="#gSmbnsrd0kvo1" x="245.33333333333331" y="493.71428571428567"/><use xlink:href="#gSmbnsrd0kvo1" x="245.33333333333331" y="-18.285714285714334"/><use xlink:href="#gSmbnsrd0kvo1" x="309.3333333333333" y="18.285714285714285"/><use xlink:href="#gSmbnsrd0kvo1" x="309.3333333333333" y="530.2857142857143"/><use xlink:href="#gSmbnsrd0kvo1" x="181.33333333333331" y="237.7142857142857"/><use xlink:href="#gSmbnsrd0kvo1" x="458.66666666666663" y="420.57142857142856"/><use xlink:href="#gSmbnsrd0kvo1" x="437.3333333333333" y="237.7142857142857"/><use xlink:href="#gSmbnsrd0kvo1" x="288" y="420.57142857142856"/><use xlink:href="#gSmbnsrd0kvo1" x="352" y="164.57142857142856"/><use xlink:href="#gSmbnsrd0kvo1" x="394.66666666666663" y="457.1428571428571"/><use xlink:href="#gSmbnsrd0kvo1" x="224" y="310.85714285714283"/><use xlink:href="#gSmbnsrd0kvo1" x="117.33333333333333" y="128"/><use xlink:href="#gSmbnsrd0kvo1" x="96" y="91.42857142857142"/><use xlink:href="#gSmbnsrd0kvo1" x="501.3333333333333" y="54.857142857142854"/><use xlink:href="#gSmbnsrd0kvo1" x="-10.666666666666686" y="54.857142857142854"/><use xlink:href="#gSmbnsrd0kvo1" x="32" y="420.57142857142856"/><use xlink:href="#gSmbnsrd0kvo1" x="202.66666666666666" y="347.4285714285714"/><use xlink:href="#gSmbnsrd0kvo1" x="117.33333333333333" y="347.4285714285714"/><use xlink:href="#gSmbnsrd0kvo1" x="394.66666666666663" y="237.7142857142857"/><use xlink:href="#gSmbnsrd0kvo1" x="458.66666666666663" y="54.857142857142854"/><use xlink:href="#gSmbnsrd0kvo1" x="74.66666666666666" y="274.2857142857143"/><use xlink:href="#gSmbnsrd0kvo1" x="309.3333333333333" y="310.85714285714283"/><use xlink:href="#gSmbnsrd0kvo1" x="117.33333333333333" y="420.57142857142856"/><use xlink:href="#gSmbnsrd0kvo1" x="330.66666666666663" y="54.857142857142854"/><use xlink:href="#gSmbnsrd0kvo1" x="458.66666666666663" y="347.4285714285714"/><use xlink:href="#gSmbnsrd0kvo1" x="330.66666666666663" y="128"/><use xlink:href="#gSmbnsrd0kvo1" x="437.3333333333333" y="91.42857142857142"/><use xlink:href="#gSmbnsrd0kvo1" x="10.666666666666666" y="310.85714285714283"/><use xlink:href="#gSmbnsrd0kvo1" x="522.6666666666666" y="310.85714285714283"/><use xlink:href="#gSmbnsrd0kvo1" x="373.3333333333333" y="54.857142857142854"/><use xlink:href="#gSmbnsrd0kvo1" x="416" y="493.71428571428567"/><use xlink:href="#gSmbnsrd0kvo1" x="416" y="-18.285714285714334"/><use xlink:href="#gSmbnsrd0kvo1" x="96" y="310.85714285714283"/><use xlink:href="#gSmbnsrd0kvo1" x="266.66666666666663" y="164.57142857142856"/><use xlink:href="#gSmbnsrd0kvo1" x="501.3333333333333" y="347.4285714285714"/><use xlink:href="#gSmbnsrd0kvo1" x="-10.666666666666686" y="347.4285714285714"/><use xlink:href="#gSmbnsrd0kvo1" x="96" y="18.285714285714285"/><use xlink:href="#gSmbnsrd0kvo1" x="96" y="530.2857142857143"/><use xlink:href="#gSmbnsrd0kvo1" x="309.3333333333333" y="384"/><use xlink:href="#gSmbnsrd0kvo1" x="288" y="128"/><use xlink:href="#gSmbnsrd0kvo1" x="416" y="128"/><use xlink:href="#gSmbnsrd0kvo1" x="202.66666666666666" y="128"/><use xlink:href="#gSmbnsrd0kvo1" x="202.66666666666666" y="493.71428571428567"/><use xlink:href="#gSmbnsrd0kvo1" x="202.66666666666666" y="-18.285714285714334"/><use xlink:href="#gSmbnsrd0kvo1" x="266.66666666666663" y="310.85714285714283"/><use xlink:href="#gSmbnsrd0kvo1" x="138.66666666666666" y="237.7142857142857"/><use xlink:href="#gSmbnsrd0kvo1" x="394.66666666666663" y="91.42857142857142"/><use xlink:href="#gSmbnsrd0kvo1" x="373.3333333333333" y="201.14285714285714"/><use xlink:href="#gSmbnsrd0kvo1" x="330.66666666666663" y="420.57142857142856"/><use xlink:href="#gSmbnsrd0kvo1" x="32" y="493.71428571428567"/><use xlink:href="#gSmbnsrd0kvo1" x="32" y="-18.285714285714334"/><use xlink:href="#gSmbnsrd0kvo1" x="160" y="201.14285714285714"/><use xlink:href="#gSmbnsrd0kvo1" x="160" y="274.2857142857143"/><use xlink:href="#gSmbnsrd0kvo1" x="501.3333333333333" y="201.14285714285714"/><use xlink:href="#gSmbnsrd0kvo1" x="-10.666666666666686" y="201.14285714285714"/><use xlink:href="#gSmbnsrd0kvo1" x="266.66666666666663" y="237.7142857142857"/><use xlink:href="#gSmbnsrd0kvo1" x="224" y="18.285714285714285"/><use xlink:href="#gSmbnsrd0kvo1" x="224" y="530.2857142857143"/><use xlink:href="#gSmbnsrd0kvo1" x="245.33333333333331" y="274.2857142857143"/><use xlink:href="#gSmbnsrd0kvo1" x="224" y="164.57142857142856"/><use xlink:href="#gSmbnsrd0kvo1" x="416" y="201.14285714285714"/><use xlink:href="#gSmbnsrd0kvo1" x="416" y="54.857142857142854"/><use xlink:href="#gSmbnsrd0kvo1" x="480" y="18.285714285714285"/><use xlink:href="#gSmbnsrd0kvo1" x="480" y="530.2857142857143"/><use xlink:href="#gSmbnsrd0kvo1" x="437.3333333333333" y="384"/><use xlink:href="#gSmbnsrd0kvo1" x="437.3333333333333" y="457.1428571428571"/><use xlink:href="#gSmbnsrd0kvo1" x="117.33333333333333" y="201.14285714285714"/><use xlink:href="#gSmbnsrd0kvo1" x="96" y="457.1428571428571"/><use xlink:href="#gSmbnsrd0kvo1" x="96" y="237.7142857142857"/><use xlink:href="#gSmbnsrd0kvo1" x="373.3333333333333" y="128"/><use xlink:href="#gSmbnsrd0kvo1" x="288" y="493.71428571428567"/><use xlink:href="#gSmbnsrd0kvo1" x="288" y="-18.285714285714334"/><use xlink:href="#gSmbnsrd0kvo1" x="266.66666666666663" y="18.285714285714285"/><use xlink:href="#gSmbnsrd0kvo1" x="266.66666666666663" y="530.2857142857143"/><use xlink:href="#gSmbnsrd0kvo1" x="480" y="164.57142857142856"/><use xlink:href="#gSmbnsrd0kvo1" x="501.3333333333333" y="274.2857142857143"/><use xlink:href="#gSmbnsrd0kvo1" x="-10.666666666666686" y="274.2857142857143"/><use xlink:href="#gSmbnsrd0kvo1" x="330.66666666666663" y="347.4285714285714"/><use xlink:href="#gSmbnsrd0kvo1" x="74.66666666666666" y="201.14285714285714"/><use xlink:href="#gSmbnsrd0kvo1" x="53.33333333333333" y="310.85714285714283"/><use xlink:href="#gSmbnsrd0kvo1" x="458.66666666666663" y="274.2857142857143"/><use xlink:href="#gSmbnsrd0kvo1" x="32" y="347.4285714285714"/><use xlink:href="#gSmbnsrd0kvo1" x="480" y="237.7142857142857"/><use xlink:href="#gSmbnsrd0kvo1" x="10.666666666666666" y="164.57142857142856"/><use xlink:href="#gSmbnsrd0kvo1" x="522.6666666666666" y="164.57142857142856"/><use xlink:href="#gSmbnsrd0kvo1" x="74.66666666666666" y="128"/><use xlink:href="#gSmbnsrd0kvo1" x="501.3333333333333" y="420.57142857142856"/><use xlink:href="#gSmbnsrd0kvo1" x="-10.666666666666686" y="420.57142857142856"/><use xlink:href="#gSmbnsrd0kvo1" x="373.3333333333333" y="274.2857142857143"/><use xlink:href="#gSmbnsrd0kvo1" x="416" y="420.57142857142856"/><use xlink:href="#gSmbnsrd0kvo1" x="10.666666666666666" y="237.7142857142857"/><use xlink:href="#gSmbnsrd0kvo1" x="522.6666666666666" y="237.7142857142857"/><use xlink:href="#gSmbnsrd0kvo1" x="10.666666666666666" y="18.285714285714285"/><use xlink:href="#gSmbnsrd0kvo1" x="522.6666666666666" y="18.285714285714285"/><use xlink:href="#gSmbnsrd0kvo1" x="522.6666666666666" y="530.2857142857143"/><use xlink:href="#gSmbnsrd0kvo1" x="10.666666666666666" y="530.2857142857143"/><use xlink:href="#gSmbnsrd0kvo1" x="522.6666666666666" y="530.2857142857143"/><use xlink:href="#gSmbnsrd0kvo1" x="352" y="310.85714285714283"/><use xlink:href="#gSmbnsrd0kvo1" x="373.3333333333333" y="347.4285714285714"/><use xlink:href="#gSmbnsrd0kvo1" x="330.66666666666663" y="274.2857142857143"/><use xlink:href="#gSmbnsrd0kvo1" x="224" y="237.7142857142857"/><use xlink:href="#gSmbnsrd0kvo1" x="288" y="347.4285714285714"/><use xlink:href="#gSmbnsrd0kvo1" x="330.66666666666663" y="493.71428571428567"/><use xlink:href="#gSmbnsrd0kvo1" x="330.66666666666663" y="-18.285714285714334"/><use xlink:href="#gSmbnsrd0kvo1" x="138.66666666666666" y="91.42857142857142"/><use xlink:href="#gSmbnsrd0kvo1" x="352" y="18.285714285714285"/><use xlink:href="#gSmbnsrd0kvo1" x="352" y="530.2857142857143"/><use xlink:href="#gSmbnsrd0kvo1" x="437.3333333333333" y="18.285714285714285"/><use xlink:href="#gSmbnsrd0kvo1" x="437.3333333333333" y="530.2857142857143"/><use xlink:href="#gSmbnsrd0kvo1" x="245.33333333333331" y="420.57142857142856"/><use xlink:href="#gSmbnsrd0kvo1" x="202.66666666666666" y="274.2857142857143"/><use xlink:href="#gSmbnsrd0kvo1" x="501.3333333333333" y="493.71428571428567"/><use xlink:href="#gSmbnsrd0kvo1" x="-10.666666666666686" y="493.71428571428567"/><use xlink:href="#gSmbnsrd0kvo1" x="-10.666666666666686" y="-18.285714285714334"/><use xlink:href="#gSmbnsrd0kvo1" x="501.3333333333333" y="-18.285714285714334"/><use xlink:href="#gSmbnsrd0kvo1" x="-10.666666666666686" y="-18.285714285714334"/><use xlink:href="#gSmbnsrd0kvo1" x="117.33333333333333" y="54.857142857142854"/><use xlink:href="#gSmbnsrd0kvo1" x="96" y="384"/><use xlink:href="#gSmbnsrd0kvo1" x="480" y="457.1428571428571"/><use xlink:href="#gSmbnsrd0kvo1" x="181.33333333333331" y="384"/><use xlink:href="#gSmbnsrd0kvo1" x="352" y="91.42857142857142"/><use xlink:href="#gSmbnsrd0kvo1" x="202.66666666666666" y="420.57142857142856"/><use xlink:href="#gSmbnsrd0kvo1" x="181.33333333333331" y="457.1428571428571"/><use xlink:href="#gSmbnsrd0kvo1" x="74.66666666666666" y="493.71428571428567"/><use xlink:href="#gSmbnsrd0kvo1" x="74.66666666666666" y="-18.285714285714334"/><use xlink:href="#gSmbnsrd0kvo1" x="309.3333333333333" y="91.42857142857142"/><use xlink:href="#gSmbnsrd0kvo1" x="224" y="457.1428571428571"/><use xlink:href="#gSmbnsrd0kvo1" x="480" y="91.42857142857142"/><use xlink:href="#gSmbnsrd0kvo1" x="373.3333333333333" y="420.57142857142856"/><use xlink:href="#gSmbnsrd0kvo1" x="32" y="274.2857142857143"/><use xlink:href="#gSmbnsrd0kvo1" x="480" y="384"/><use xlink:href="#gSmbnsrd0kvo1" x="202.66666666666666" y="54.857142857142854"/><use xlink:href="#gSmbnsrd0kvo1" x="416" y="347.4285714285714"/><use xlink:href="#gSmbnsrd0kvo1" x="181.33333333333331" y="310.85714285714283"/><use xlink:href="#gSmbnsrd0kvo1" x="352" y="237.7142857142857"/><use xlink:href="#gSmbnsrd0kvo1" x="245.33333333333331" y="347.4285714285714"/></g>
			<desc>Created with Snap</desc></svg>
