<svg xmlns="http://www.w3.org/2000/svg" xmlns:xlink="http://www.w3.org/1999/xlink" id="Svg" width="256" height="256">
				<defs>
					<clipPath id="clipPath">
						
					<rect x="0" y="0" width="256" height="256"/></clipPath>
				<g transform="matrix(0.67,0,0,0.67,-6.7,-6.7)" id="gSmc3otew9k9o"><g transform="translate(0,-291.70832)" id="layer1">
    <path id="path1279" d="m 10.055224,298.91433 c -0.1718136,0 -0.3436354,0.18026 -0.3436354,0.54077 0,0.72103 -0.3436357,3.12446 -0.3436357,5.04721 h 1.3745351 c 0,-1.92275 -0.343628,-4.32618 -0.343628,-5.04721 0,-0.36051 -0.171822,-0.54077 -0.343636,-0.54077 z" style="stroke-width:1.14953887"/>
    <path id="path1273" d="m 5.2319499,300.77021 c -0.2255087,-0.0225 -0.3436279,0.15022 -0.085907,0.33048 0.3436357,0.24034 1.718171,1.44206 1.718171,3.3648 h 1.3745353 c 0,-1.92274 -2.4054348,-3.3648 -2.7490706,-3.60515 -0.085907,-0.0601 -0.1825514,-0.0826 -0.2577288,-0.0901 z" style="stroke-width:1.14953887"/>
    <path id="path2" d="m 14.768047,300.77021 c -0.07519,0.008 -0.171814,0.0301 -0.257721,0.0901 -0.343636,0.24035 -2.749071,1.68241 -2.749071,3.60515 h 1.374535 c 0,-1.92274 1.374536,-3.12446 1.718164,-3.3648 0.257728,-0.18026 0.139601,-0.353 -0.08591,-0.33048 z" style="stroke-width:1.14953887"/>
  </g></g></defs>
				<g id="Pattern" style="clip-path: url(#clipPath);">
				<use xlink:href="#gSmc3otew9k9o" x="96" y="80"/><use xlink:href="#gSmc3otew9k9o" x="10" y="144"/><use xlink:href="#gSmc3otew9k9o" x="266" y="144"/><use xlink:href="#gSmc3otew9k9o" x="202" y="176"/><use xlink:href="#gSmc3otew9k9o" x="138" y="16"/><use xlink:href="#gSmc3otew9k9o" x="138" y="272"/><use xlink:href="#gSmc3otew9k9o" x="10" y="16"/><use xlink:href="#gSmc3otew9k9o" x="266" y="16"/><use xlink:href="#gSmc3otew9k9o" x="266" y="272"/><use xlink:href="#gSmc3otew9k9o" x="10" y="272"/><use xlink:href="#gSmc3otew9k9o" x="266" y="272"/><use xlink:href="#gSmc3otew9k9o" x="53" y="16"/><use xlink:href="#gSmc3otew9k9o" x="53" y="272"/><use xlink:href="#gSmc3otew9k9o" x="160" y="48"/><use xlink:href="#gSmc3otew9k9o" x="10" y="80"/><use xlink:href="#gSmc3otew9k9o" x="266" y="80"/><use xlink:href="#gSmc3otew9k9o" x="96" y="144"/><use xlink:href="#gSmc3otew9k9o" x="245" y="112"/><use xlink:href="#gSmc3otew9k9o" x="-11" y="112"/><use xlink:href="#gSmc3otew9k9o" x="160" y="176"/><use xlink:href="#gSmc3otew9k9o" x="117" y="240"/><use xlink:href="#gSmc3otew9k9o" x="117" y="-16"/><use xlink:href="#gSmc3otew9k9o" x="181" y="16"/><use xlink:href="#gSmc3otew9k9o" x="181" y="272"/><use xlink:href="#gSmc3otew9k9o" x="32" y="240"/><use xlink:href="#gSmc3otew9k9o" x="32" y="-16"/><use xlink:href="#gSmc3otew9k9o" x="96" y="16"/><use xlink:href="#gSmc3otew9k9o" x="96" y="272"/><use xlink:href="#gSmc3otew9k9o" x="53" y="208"/><use xlink:href="#gSmc3otew9k9o" x="117" y="48"/><use xlink:href="#gSmc3otew9k9o" x="74" y="48"/><use xlink:href="#gSmc3otew9k9o" x="53" y="144"/><use xlink:href="#gSmc3otew9k9o" x="245" y="240"/><use xlink:href="#gSmc3otew9k9o" x="-11" y="240"/><use xlink:href="#gSmc3otew9k9o" x="-11" y="-16"/><use xlink:href="#gSmc3otew9k9o" x="245" y="-16"/><use xlink:href="#gSmc3otew9k9o" x="-11" y="-16"/><use xlink:href="#gSmc3otew9k9o" x="181" y="144"/><use xlink:href="#gSmc3otew9k9o" x="32" y="48"/><use xlink:href="#gSmc3otew9k9o" x="181" y="80"/><use xlink:href="#gSmc3otew9k9o" x="32" y="112"/><use xlink:href="#gSmc3otew9k9o" x="138" y="144"/><use xlink:href="#gSmc3otew9k9o" x="224" y="16"/><use xlink:href="#gSmc3otew9k9o" x="224" y="272"/><use xlink:href="#gSmc3otew9k9o" x="74" y="240"/><use xlink:href="#gSmc3otew9k9o" x="74" y="-16"/><use xlink:href="#gSmc3otew9k9o" x="224" y="80"/><use xlink:href="#gSmc3otew9k9o" x="74" y="112"/><use xlink:href="#gSmc3otew9k9o" x="224" y="144"/><use xlink:href="#gSmc3otew9k9o" x="138" y="80"/><use xlink:href="#gSmc3otew9k9o" x="10" y="208"/><use xlink:href="#gSmc3otew9k9o" x="266" y="208"/><use xlink:href="#gSmc3otew9k9o" x="245" y="176"/><use xlink:href="#gSmc3otew9k9o" x="-11" y="176"/><use xlink:href="#gSmc3otew9k9o" x="53" y="80"/><use xlink:href="#gSmc3otew9k9o" x="160" y="112"/><use xlink:href="#gSmc3otew9k9o" x="224" y="208"/><use xlink:href="#gSmc3otew9k9o" x="202" y="48"/><use xlink:href="#gSmc3otew9k9o" x="181" y="208"/><use xlink:href="#gSmc3otew9k9o" x="74" y="176"/><use xlink:href="#gSmc3otew9k9o" x="32" y="176"/><use xlink:href="#gSmc3otew9k9o" x="245" y="48"/><use xlink:href="#gSmc3otew9k9o" x="-11" y="48"/><use xlink:href="#gSmc3otew9k9o" x="202" y="112"/><use xlink:href="#gSmc3otew9k9o" x="202" y="240"/><use xlink:href="#gSmc3otew9k9o" x="202" y="-16"/><use xlink:href="#gSmc3otew9k9o" x="117" y="112"/><use xlink:href="#gSmc3otew9k9o" x="160" y="240"/><use xlink:href="#gSmc3otew9k9o" x="160" y="-16"/><use xlink:href="#gSmc3otew9k9o" x="96" y="208"/><use xlink:href="#gSmc3otew9k9o" x="117" y="176"/><use xlink:href="#gSmc3otew9k9o" x="138" y="208"/></g>
			<desc>Created with Snap</desc></svg>