<svg xmlns="http://www.w3.org/2000/svg" xmlns:xlink="http://www.w3.org/1999/xlink" id="Svg" width="256" height="256">
				<defs>
					<clipPath id="clipPath">
						
					<rect x="0" y="0" width="256" height="256"/></clipPath>
				<g transform="matrix(0.25,0,0,0.25,-12.5,-12.5)" id="gSmc6dve0esd"><path id="path852" d="m 49.870027,40.205075 c -0.577299,0 -1.1546,0.631931 -1.1546,1.895792 0,2.527723 -1.1546,10.953465 -1.1546,17.694058 h 4.618402 c 0,-6.740593 -1.154601,-15.166335 -1.154601,-17.694058 0,-1.263861 -0.5773,-1.895792 -1.154601,-1.895792 z" style="stroke-width:3.94529891"/>
  <path id="path850" d="m 34.63166,42.589288 c -0.551896,0 -0.898977,0.665438 -0.275947,1.895792 2.233047,4.409819 4.829954,5.073929 4.399761,15.309845 h 6.445675 C 45.362472,51.8713 38.527472,46.743931 36.563293,44.48508 35.658364,43.44439 35.183555,42.589288 34.63166,42.589288 Z" style="stroke-width:3.85751319"/>
  <path id="path846" d="m 25.859433,48.077691 c -0.83556,-0.07899 -1.273234,0.526609 -0.318308,1.15854 1.273234,0.842574 5.814989,3.818101 5.814989,10.558694 h 5.092953 c 0,-6.740593 -8.361473,-10.558694 -9.634708,-11.401269 -0.318308,-0.210643 -0.676405,-0.289634 -0.954926,-0.315965 z" style="stroke-width:4.14303207"/>
  <path style="stroke-width:3.85751319" d="m 65.368342,42.589288 c 0.551895,0 0.898975,0.665438 0.275947,1.895792 -2.233047,4.409819 -4.829955,5.073929 -4.399761,15.309845 H 54.798852 C 54.63753,51.8713 61.47253,46.743931 63.436709,44.48508 c 0.904929,-1.04069 1.379738,-1.895792 1.931633,-1.895792 z" id="path854"/>
  <path style="stroke-width:4.14303207" d="m 74.140567,48.077691 c 0.83556,-0.07899 1.273234,0.526609 0.318308,1.15854 -1.273235,0.842574 -5.814989,3.818101 -5.814989,10.558694 h -5.092951 c 0,-6.740593 8.361471,-10.558694 9.634705,-11.401269 0.318309,-0.210643 0.676407,-0.289634 0.954927,-0.315965 z" id="path856"/></g></defs>
				<g id="Pattern" style="clip-path: url(#clipPath);">
				<use xlink:href="#gSmc6dve0esd" x="160" y="80"/><use xlink:href="#gSmc6dve0esd" x="160" y="16"/><use xlink:href="#gSmc6dve0esd" x="160" y="272"/><use xlink:href="#gSmc6dve0esd" x="32" y="80"/><use xlink:href="#gSmc6dve0esd" x="32" y="144"/><use xlink:href="#gSmc6dve0esd" x="32" y="208"/><use xlink:href="#gSmc6dve0esd" x="160" y="144"/><use xlink:href="#gSmc6dve0esd" x="224" y="176"/><use xlink:href="#gSmc6dve0esd" x="96" y="48"/><use xlink:href="#gSmc6dve0esd" x="96" y="240"/><use xlink:href="#gSmc6dve0esd" x="96" y="-16"/><use xlink:href="#gSmc6dve0esd" x="96" y="176"/><use xlink:href="#gSmc6dve0esd" x="224" y="48"/><use xlink:href="#gSmc6dve0esd" x="224" y="112"/><use xlink:href="#gSmc6dve0esd" x="160" y="208"/><use xlink:href="#gSmc6dve0esd" x="32" y="16"/><use xlink:href="#gSmc6dve0esd" x="32" y="272"/><use xlink:href="#gSmc6dve0esd" x="224" y="240"/><use xlink:href="#gSmc6dve0esd" x="224" y="-16"/><use xlink:href="#gSmc6dve0esd" x="96" y="112"/></g>
			<desc>Created with Snap</desc></svg>