<svg xmlns="http://www.w3.org/2000/svg" xmlns:xlink="http://www.w3.org/1999/xlink" id="Svg" width="256" height="256">
				<defs>
					<clipPath id="clipPath">
						
					<rect x="0" y="0" width="256" height="256"/></clipPath>
				<g transform="matrix(0.2,0,0,0.2,-10,-10.2)" id="gSmc6hchxk29g"><g transform="translate(4.6577113,20.189957)" id="g1497">
    <g id="g1470">
      <ellipse style="fill:none;stroke:black;stroke-width:4;stroke-linejoin:bevel;stroke-miterlimit:4;stroke-dasharray:none;stroke-opacity:1" id="path2024" cx="27.459595" cy="45.548183" rx="11.461417" ry="10.118728"/>
      <path id="path827" d="M 28,56.090005 V 46.352306" style="fill:none;stroke:black;stroke-width:5;stroke-linecap:butt;stroke-linejoin:miter;stroke-miterlimit:4;stroke-dasharray:none;stroke-opacity:1"/>
    </g>
    <g id="g1466">
      <ellipse ry="13.840866" rx="14.668571" style="fill:none;fill-opacity:1;stroke:black;stroke-width:4.53368044;stroke-linejoin:bevel;stroke-miterlimit:4;stroke-dasharray:none;stroke-opacity:1" id="path6851" cx="59.750988" cy="17.09436"/>
      <path style="fill:none;fill-rule:evenodd;stroke:black;stroke-width:5.27127743;stroke-linecap:butt;stroke-linejoin:miter;stroke-miterlimit:4;stroke-dasharray:none;stroke-opacity:1" d="M 60.178463,57.761076 60.088715,30.389844" id="path6863"/>
    </g>
    <g id="g1486">
      <path style="fill:none;stroke:black;stroke-width:4;stroke-linecap:round;stroke-linejoin:miter;stroke-miterlimit:4;stroke-dasharray:none;stroke-opacity:1" d="m 48.031201,47.047178 v 9.540527" id="path817"/>
      <path style="fill:none;stroke:black;stroke-width:4;stroke-linecap:butt;stroke-linejoin:miter;stroke-miterlimit:4;stroke-dasharray:none;stroke-opacity:1" d="M 48.031201,36.625579 V 47.047178" id="path823"/>
    </g>
  </g></g></defs>
				<g id="Pattern" style="clip-path: url(#clipPath);">
				<use xlink:href="#gSmc6hchxk29g" x="55" y="247"/><use xlink:href="#gSmc6hchxk29g" x="55" y="-9"/><use xlink:href="#gSmc6hchxk29g" x="111" y="87"/><use xlink:href="#gSmc6hchxk29g" x="143" y="207"/><use xlink:href="#gSmc6hchxk29g" x="215" y="239"/><use xlink:href="#gSmc6hchxk29g" x="215" y="-17"/><use xlink:href="#gSmc6hchxk29g" x="79" y="207"/><use xlink:href="#gSmc6hchxk29g" x="175" y="151"/><use xlink:href="#gSmc6hchxk29g" x="55" y="55"/><use xlink:href="#gSmc6hchxk29g" x="175" y="23"/><use xlink:href="#gSmc6hchxk29g" x="175" y="279"/><use xlink:href="#gSmc6hchxk29g" x="79" y="143"/><use xlink:href="#gSmc6hchxk29g" x="247" y="183"/><use xlink:href="#gSmc6hchxk29g" x="-9" y="183"/><use xlink:href="#gSmc6hchxk29g" x="175" y="87"/><use xlink:href="#gSmc6hchxk29g" x="111" y="23"/><use xlink:href="#gSmc6hchxk29g" x="111" y="279"/><use xlink:href="#gSmc6hchxk29g" x="215" y="47"/><use xlink:href="#gSmc6hchxk29g" x="87" y="239"/><use xlink:href="#gSmc6hchxk29g" x="87" y="-17"/><use xlink:href="#gSmc6hchxk29g" x="247" y="119"/><use xlink:href="#gSmc6hchxk29g" x="-9" y="119"/><use xlink:href="#gSmc6hchxk29g" x="119" y="247"/><use xlink:href="#gSmc6hchxk29g" x="119" y="-9"/><use xlink:href="#gSmc6hchxk29g" x="87" y="111"/><use xlink:href="#gSmc6hchxk29g" x="79" y="15"/><use xlink:href="#gSmc6hchxk29g" x="79" y="271"/><use xlink:href="#gSmc6hchxk29g" x="239" y="151"/><use xlink:href="#gSmc6hchxk29g" x="-17" y="151"/><use xlink:href="#gSmc6hchxk29g" x="23" y="175"/><use xlink:href="#gSmc6hchxk29g" x="279" y="175"/><use xlink:href="#gSmc6hchxk29g" x="207" y="207"/><use xlink:href="#gSmc6hchxk29g" x="247" y="55"/><use xlink:href="#gSmc6hchxk29g" x="-9" y="55"/><use xlink:href="#gSmc6hchxk29g" x="207" y="143"/><use xlink:href="#gSmc6hchxk29g" x="151" y="47"/><use xlink:href="#gSmc6hchxk29g" x="111" y="151"/><use xlink:href="#gSmc6hchxk29g" x="47" y="151"/><use xlink:href="#gSmc6hchxk29g" x="47" y="23"/><use xlink:href="#gSmc6hchxk29g" x="47" y="279"/><use xlink:href="#gSmc6hchxk29g" x="207" y="79"/><use xlink:href="#gSmc6hchxk29g" x="55" y="119"/><use xlink:href="#gSmc6hchxk29g" x="111" y="215"/><use xlink:href="#gSmc6hchxk29g" x="119" y="183"/><use xlink:href="#gSmc6hchxk29g" x="87" y="47"/><use xlink:href="#gSmc6hchxk29g" x="207" y="15"/><use xlink:href="#gSmc6hchxk29g" x="207" y="271"/><use xlink:href="#gSmc6hchxk29g" x="55" y="183"/><use xlink:href="#gSmc6hchxk29g" x="119" y="55"/><use xlink:href="#gSmc6hchxk29g" x="47" y="87"/><use xlink:href="#gSmc6hchxk29g" x="183" y="183"/><use xlink:href="#gSmc6hchxk29g" x="15" y="143"/><use xlink:href="#gSmc6hchxk29g" x="271" y="143"/><use xlink:href="#gSmc6hchxk29g" x="215" y="111"/><use xlink:href="#gSmc6hchxk29g" x="15" y="79"/><use xlink:href="#gSmc6hchxk29g" x="271" y="79"/><use xlink:href="#gSmc6hchxk29g" x="151" y="175"/><use xlink:href="#gSmc6hchxk29g" x="143" y="15"/><use xlink:href="#gSmc6hchxk29g" x="143" y="271"/><use xlink:href="#gSmc6hchxk29g" x="15" y="15"/><use xlink:href="#gSmc6hchxk29g" x="271" y="15"/><use xlink:href="#gSmc6hchxk29g" x="271" y="271"/><use xlink:href="#gSmc6hchxk29g" x="15" y="271"/><use xlink:href="#gSmc6hchxk29g" x="271" y="271"/><use xlink:href="#gSmc6hchxk29g" x="183" y="247"/><use xlink:href="#gSmc6hchxk29g" x="183" y="-9"/><use xlink:href="#gSmc6hchxk29g" x="143" y="143"/><use xlink:href="#gSmc6hchxk29g" x="183" y="119"/><use xlink:href="#gSmc6hchxk29g" x="151" y="111"/><use xlink:href="#gSmc6hchxk29g" x="143" y="79"/><use xlink:href="#gSmc6hchxk29g" x="15" y="207"/><use xlink:href="#gSmc6hchxk29g" x="271" y="207"/><use xlink:href="#gSmc6hchxk29g" x="239" y="215"/><use xlink:href="#gSmc6hchxk29g" x="-17" y="215"/><use xlink:href="#gSmc6hchxk29g" x="183" y="55"/><use xlink:href="#gSmc6hchxk29g" x="175" y="215"/><use xlink:href="#gSmc6hchxk29g" x="151" y="239"/><use xlink:href="#gSmc6hchxk29g" x="151" y="-17"/><use xlink:href="#gSmc6hchxk29g" x="23" y="239"/><use xlink:href="#gSmc6hchxk29g" x="279" y="239"/><use xlink:href="#gSmc6hchxk29g" x="279" y="-17"/><use xlink:href="#gSmc6hchxk29g" x="23" y="-17"/><use xlink:href="#gSmc6hchxk29g" x="279" y="-17"/><use xlink:href="#gSmc6hchxk29g" x="215" y="175"/><use xlink:href="#gSmc6hchxk29g" x="23" y="111"/><use xlink:href="#gSmc6hchxk29g" x="279" y="111"/><use xlink:href="#gSmc6hchxk29g" x="239" y="23"/><use xlink:href="#gSmc6hchxk29g" x="-17" y="23"/><use xlink:href="#gSmc6hchxk29g" x="-17" y="279"/><use xlink:href="#gSmc6hchxk29g" x="239" y="279"/><use xlink:href="#gSmc6hchxk29g" x="-17" y="279"/><use xlink:href="#gSmc6hchxk29g" x="47" y="215"/><use xlink:href="#gSmc6hchxk29g" x="79" y="79"/><use xlink:href="#gSmc6hchxk29g" x="247" y="247"/><use xlink:href="#gSmc6hchxk29g" x="-9" y="247"/><use xlink:href="#gSmc6hchxk29g" x="-9" y="-9"/><use xlink:href="#gSmc6hchxk29g" x="247" y="-9"/><use xlink:href="#gSmc6hchxk29g" x="-9" y="-9"/><use xlink:href="#gSmc6hchxk29g" x="239" y="87"/><use xlink:href="#gSmc6hchxk29g" x="-17" y="87"/><use xlink:href="#gSmc6hchxk29g" x="23" y="47"/><use xlink:href="#gSmc6hchxk29g" x="279" y="47"/><use xlink:href="#gSmc6hchxk29g" x="119" y="119"/><use xlink:href="#gSmc6hchxk29g" x="87" y="175"/></g>
			<desc>Created with Snap</desc></svg>
