<svg xmlns="http://www.w3.org/2000/svg" xmlns:xlink="http://www.w3.org/1999/xlink" id="Svg" width="256" height="256">
				<defs>
					<clipPath id="clipPath">
						
					<rect x="0" y="0" width="256" height="256"/></clipPath>
				<g transform="matrix(0.1875,0,0,0.1875,-9.5625,-9.375)" id="gSmc6dve0e16e"><g transform="translate(0,-270.54165)" id="layer1">
    <g transform="translate(-0.92494896,-0.46853108)" id="g1468">
      <path style="fill:none;stroke:#000000;stroke-width:6.19999981;stroke-linecap:butt;stroke-linejoin:miter;stroke-miterlimit:4;stroke-dasharray:none;stroke-opacity:1" d="m 47.053572,352.7738 -5.535714,-43.75 -15.803572,14.10713" id="path1458"/>
      <path style="color:#000000;font-style:normal;font-variant:normal;font-weight:normal;font-stretch:normal;font-size:medium;line-height:normal;font-family:sans-serif;font-variant-ligatures:normal;font-variant-position:normal;font-variant-caps:normal;font-variant-numeric:normal;font-variant-alternates:normal;font-feature-settings:normal;text-indent:0;text-align:start;text-decoration:none;text-decoration-line:none;text-decoration-style:solid;text-decoration-color:#000000;letter-spacing:normal;word-spacing:normal;text-transform:none;writing-mode:lr-tb;direction:ltr;text-orientation:mixed;dominant-baseline:auto;baseline-shift:baseline;text-anchor:start;white-space:normal;shape-padding:0;clip-rule:nonzero;display:inline;overflow:visible;visibility:visible;opacity:1;isolation:auto;mix-blend-mode:normal;color-interpolation:sRGB;color-interpolation-filters:linearRGB;solid-color:#000000;solid-opacity:1;vector-effect:none;fill:#000000;fill-opacity:1;fill-rule:nonzero;stroke:none;stroke-width:6.19999981;stroke-linecap:butt;stroke-linejoin:miter;stroke-miterlimit:4;stroke-dasharray:none;stroke-dashoffset:0;stroke-opacity:1;color-rendering:auto;image-rendering:auto;shape-rendering:auto;text-rendering:auto;enable-background:accumulate" d="m 64.255859,288.85742 -8.93164,63.03516 6.138672,0.86914 6.78122,-47.85742 L 78.2,317.79612 v -9.70042 z" id="path1460"/>
    </g>
  </g></g></defs>
				<g id="Pattern" style="clip-path: url(#clipPath);">
				<use xlink:href="#gSmc6dve0e16e" x="47" y="222"/><use xlink:href="#gSmc6dve0e16e" x="30" y="158"/><use xlink:href="#gSmc6dve0e16e" x="286" y="158"/><use xlink:href="#gSmc6dve0e16e" x="175" y="222"/><use xlink:href="#gSmc6dve0e16e" x="94" y="175"/><use xlink:href="#gSmc6dve0e16e" x="175" y="94"/><use xlink:href="#gSmc6dve0e16e" x="239" y="111"/><use xlink:href="#gSmc6dve0e16e" x="-17" y="111"/><use xlink:href="#gSmc6dve0e16e" x="111" y="111"/><use xlink:href="#gSmc6dve0e16e" x="222" y="175"/><use xlink:href="#gSmc6dve0e16e" x="222" y="47"/><use xlink:href="#gSmc6dve0e16e" x="239" y="239"/><use xlink:href="#gSmc6dve0e16e" x="-17" y="239"/><use xlink:href="#gSmc6dve0e16e" x="-17" y="-17"/><use xlink:href="#gSmc6dve0e16e" x="239" y="-17"/><use xlink:href="#gSmc6dve0e16e" x="-17" y="-17"/><use xlink:href="#gSmc6dve0e16e" x="94" y="47"/><use xlink:href="#gSmc6dve0e16e" x="30" y="30"/><use xlink:href="#gSmc6dve0e16e" x="286" y="30"/><use xlink:href="#gSmc6dve0e16e" x="286" y="286"/><use xlink:href="#gSmc6dve0e16e" x="30" y="286"/><use xlink:href="#gSmc6dve0e16e" x="286" y="286"/><use xlink:href="#gSmc6dve0e16e" x="111" y="239"/><use xlink:href="#gSmc6dve0e16e" x="111" y="-17"/><use xlink:href="#gSmc6dve0e16e" x="47" y="94"/><use xlink:href="#gSmc6dve0e16e" x="158" y="158"/><use xlink:href="#gSmc6dve0e16e" x="158" y="30"/><use xlink:href="#gSmc6dve0e16e" x="158" y="286"/></g>
			<desc>Created with Snap</desc></svg>