<?xml version="1.0" encoding="UTF-8" standalone="no"?>
<svg xmlns="http://www.w3.org/2000/svg" xmlns:xlink="http://www.w3.org/1999/xlink" id="Svg" width="256" height="256">
				<defs>
					<clipPath id="clipPath">
						
					<rect x="0" y="0" width="256" height="256"/></clipPath>
				<g transform="matrix(3.2,0,0,3.2,0,0)" id="gSlb3mhk7d2df"><defs id="defs42"/><g id="layer1" transform="translate(-104.55833,-146.96983)"><g id="g6867" transform="translate(-43.727107,12.250186)"><circle style="fill:none;fill-opacity:1;stroke:#000000;stroke-width:0.34999999;stroke-linejoin:bevel;stroke-miterlimit:4;stroke-dasharray:none;stroke-opacity:1" id="path6851" cx="149.56044" cy="135.99464" r="1.1"/><path style="fill:none;fill-rule:evenodd;stroke:#000000;stroke-width:0.34999999;stroke-linecap:butt;stroke-linejoin:miter;stroke-miterlimit:4;stroke-dasharray:none;stroke-opacity:1" d="m 149.67929,138.44561 -0.008,-1.3447" id="path6863"/></g></g></g><g transform="matrix(3.2,0,0,3.2,0,0)" id="gSlb3mhk7d2dg"><defs id="defs90"/><g id="layer1" transform="translate(-104.70009,-148.58333)"><g id="g6891" transform="translate(-52.241404,12.325986)"><circle style="fill:#000000;fill-opacity:1;stroke:none;" id="circle6887" cx="157.1915" cy="136.50735" r="0.25"/><circle style="fill:#000000;fill-opacity:1;stroke:none;" id="circle6889" cx="158.95798" cy="136.50734" r="0.25"/></g></g></g></defs>
				<g id="Pattern" style="clip-path: url(#clipPath);">
				<use xlink:href="#gSlb3mhk7d2dg" x="207" y="37"/><use xlink:href="#gSlb3mhk7d2dg" x="37" y="79"/><use xlink:href="#gSlb3mhk7d2dg" x="143" y="116"/><use xlink:href="#gSlb3mhk7d2df" x="186" y="159"/><use xlink:href="#gSlb3mhk7d2df" x="122" y="79"/><use xlink:href="#gSlb3mhk7d2dg" x="52" y="10"/><use xlink:href="#gSlb3mhk7d2dg" x="52" y="266"/><use xlink:href="#gSlb3mhk7d2df" x="186" y="202"/><use xlink:href="#gSlb3mhk7d2dg" x="143" y="31"/><use xlink:href="#gSlb3mhk7d2dg" x="143" y="287"/><use xlink:href="#gSlb3mhk7d2df" x="37" y="37"/><use xlink:href="#gSlb3mhk7d2dg" x="165" y="207"/><use xlink:href="#gSlb3mhk7d2dg" x="15" y="116"/><use xlink:href="#gSlb3mhk7d2dg" x="271" y="116"/><use xlink:href="#gSlb3mhk7d2dg" x="74" y="101"/><use xlink:href="#gSlb3mhk7d2df" x="58" y="159"/><use xlink:href="#gSlb3mhk7d2dg" x="244" y="143"/><use xlink:href="#gSlb3mhk7d2dg" x="-12" y="143"/><use xlink:href="#gSlb3mhk7d2df" x="101" y="31"/><use xlink:href="#gSlb3mhk7d2df" x="101" y="287"/><use xlink:href="#gSlb3mhk7d2df" x="223" y="95"/><use xlink:href="#gSlb3mhk7d2df" x="250" y="165"/><use xlink:href="#gSlb3mhk7d2df" x="-6" y="165"/><use xlink:href="#gSlb3mhk7d2dg" x="52" y="180"/><use xlink:href="#gSlb3mhk7d2df" x="101" y="244"/><use xlink:href="#gSlb3mhk7d2df" x="101" y="-12"/><use xlink:href="#gSlb3mhk7d2df" x="122" y="250"/><use xlink:href="#gSlb3mhk7d2df" x="122" y="-6"/><use xlink:href="#gSlb3mhk7d2dg" x="122" y="122"/><use xlink:href="#gSlb3mhk7d2df" x="79" y="207"/><use xlink:href="#gSlb3mhk7d2df" x="186" y="116"/><use xlink:href="#gSlb3mhk7d2dg" x="116" y="143"/><use xlink:href="#gSlb3mhk7d2dg" x="37" y="122"/><use xlink:href="#gSlb3mhk7d2dg" x="10" y="223"/><use xlink:href="#gSlb3mhk7d2dg" x="266" y="223"/><use xlink:href="#gSlb3mhk7d2dg" x="15" y="202"/><use xlink:href="#gSlb3mhk7d2dg" x="271" y="202"/><use xlink:href="#gSlb3mhk7d2df" x="95" y="95"/><use xlink:href="#gSlb3mhk7d2dg" x="180" y="10"/><use xlink:href="#gSlb3mhk7d2dg" x="180" y="266"/><use xlink:href="#gSlb3mhk7d2df" x="52" y="95"/><use xlink:href="#gSlb3mhk7d2dg" x="165" y="37"/><use xlink:href="#gSlb3mhk7d2dg" x="31" y="101"/><use xlink:href="#gSlb3mhk7d2dg" x="287" y="101"/><use xlink:href="#gSlb3mhk7d2dg" x="74" y="15"/><use xlink:href="#gSlb3mhk7d2dg" x="74" y="271"/><use xlink:href="#gSlb3mhk7d2df" x="180" y="180"/><use xlink:href="#gSlb3mhk7d2dg" x="101" y="159"/><use xlink:href="#gSlb3mhk7d2dg" x="202" y="186"/><use xlink:href="#gSlb3mhk7d2dg" x="122" y="207"/><use xlink:href="#gSlb3mhk7d2dg" x="79" y="250"/><use xlink:href="#gSlb3mhk7d2dg" x="79" y="-6"/><use xlink:href="#gSlb3mhk7d2df" x="79" y="165"/><use xlink:href="#gSlb3mhk7d2df" x="202" y="15"/><use xlink:href="#gSlb3mhk7d2df" x="202" y="271"/><use xlink:href="#gSlb3mhk7d2dg" x="143" y="74"/><use xlink:href="#gSlb3mhk7d2dg" x="74" y="58"/><use xlink:href="#gSlb3mhk7d2df" x="52" y="223"/><use xlink:href="#gSlb3mhk7d2dg" x="101" y="74"/><use xlink:href="#gSlb3mhk7d2dg" x="143" y="159"/><use xlink:href="#gSlb3mhk7d2df" x="250" y="122"/><use xlink:href="#gSlb3mhk7d2df" x="-6" y="122"/><use xlink:href="#gSlb3mhk7d2df" x="58" y="116"/><use xlink:href="#gSlb3mhk7d2dg" x="165" y="79"/><use xlink:href="#gSlb3mhk7d2df" x="223" y="10"/><use xlink:href="#gSlb3mhk7d2df" x="223" y="266"/><use xlink:href="#gSlb3mhk7d2df" x="186" y="31"/><use xlink:href="#gSlb3mhk7d2df" x="186" y="287"/><use xlink:href="#gSlb3mhk7d2df" x="180" y="223"/><use xlink:href="#gSlb3mhk7d2dg" x="122" y="37"/><use xlink:href="#gSlb3mhk7d2df" x="37" y="207"/><use xlink:href="#gSlb3mhk7d2df" x="37" y="165"/><use xlink:href="#gSlb3mhk7d2df" x="223" y="52"/><use xlink:href="#gSlb3mhk7d2dg" x="31" y="143"/><use xlink:href="#gSlb3mhk7d2dg" x="287" y="143"/><use xlink:href="#gSlb3mhk7d2df" x="79" y="37"/><use xlink:href="#gSlb3mhk7d2dg" x="143" y="244"/><use xlink:href="#gSlb3mhk7d2dg" x="143" y="-12"/><use xlink:href="#gSlb3mhk7d2dg" x="138" y="52"/><use xlink:href="#gSlb3mhk7d2df" x="116" y="186"/><use xlink:href="#gSlb3mhk7d2df" x="250" y="37"/><use xlink:href="#gSlb3mhk7d2df" x="-6" y="37"/><use xlink:href="#gSlb3mhk7d2df" x="244" y="15"/><use xlink:href="#gSlb3mhk7d2df" x="-12" y="15"/><use xlink:href="#gSlb3mhk7d2df" x="-12" y="271"/><use xlink:href="#gSlb3mhk7d2df" x="244" y="271"/><use xlink:href="#gSlb3mhk7d2df" x="-12" y="271"/><use xlink:href="#gSlb3mhk7d2dg" x="79" y="79"/><use xlink:href="#gSlb3mhk7d2dg" x="95" y="10"/><use xlink:href="#gSlb3mhk7d2dg" x="95" y="266"/><use xlink:href="#gSlb3mhk7d2df" x="74" y="229"/><use xlink:href="#gSlb3mhk7d2df" x="74" y="-27"/><use xlink:href="#gSlb3mhk7d2df" x="95" y="223"/><use xlink:href="#gSlb3mhk7d2dg" x="116" y="15"/><use xlink:href="#gSlb3mhk7d2dg" x="116" y="271"/><use xlink:href="#gSlb3mhk7d2dg" x="58" y="202"/><use xlink:href="#gSlb3mhk7d2dg" x="138" y="180"/><use xlink:href="#gSlb3mhk7d2dg" x="10" y="180"/><use xlink:href="#gSlb3mhk7d2dg" x="266" y="180"/><use xlink:href="#gSlb3mhk7d2dg" x="223" y="138"/><use xlink:href="#gSlb3mhk7d2df" x="10" y="138"/><use xlink:href="#gSlb3mhk7d2df" x="266" y="138"/><use xlink:href="#gSlb3mhk7d2dg" x="31" y="15"/><use xlink:href="#gSlb3mhk7d2dg" x="287" y="15"/><use xlink:href="#gSlb3mhk7d2dg" x="287" y="271"/><use xlink:href="#gSlb3mhk7d2dg" x="31" y="271"/><use xlink:href="#gSlb3mhk7d2dg" x="287" y="271"/><use xlink:href="#gSlb3mhk7d2df" x="101" y="202"/><use xlink:href="#gSlb3mhk7d2dg" x="159" y="143"/><use xlink:href="#gSlb3mhk7d2df" x="101" y="116"/><use xlink:href="#gSlb3mhk7d2dg" x="229" y="116"/><use xlink:href="#gSlb3mhk7d2dg" x="-27" y="116"/><use xlink:href="#gSlb3mhk7d2df" x="202" y="101"/><use xlink:href="#gSlb3mhk7d2dg" x="95" y="180"/><use xlink:href="#gSlb3mhk7d2df" x="37" y="250"/><use xlink:href="#gSlb3mhk7d2df" x="37" y="-6"/><use xlink:href="#gSlb3mhk7d2df" x="244" y="229"/><use xlink:href="#gSlb3mhk7d2df" x="-12" y="229"/><use xlink:href="#gSlb3mhk7d2df" x="-12" y="-27"/><use xlink:href="#gSlb3mhk7d2df" x="244" y="-27"/><use xlink:href="#gSlb3mhk7d2df" x="-12" y="-27"/><use xlink:href="#gSlb3mhk7d2df" x="31" y="186"/><use xlink:href="#gSlb3mhk7d2df" x="287" y="186"/><use xlink:href="#gSlb3mhk7d2df" x="58" y="31"/><use xlink:href="#gSlb3mhk7d2df" x="58" y="287"/><use xlink:href="#gSlb3mhk7d2df" x="186" y="244"/><use xlink:href="#gSlb3mhk7d2df" x="186" y="-12"/><use xlink:href="#gSlb3mhk7d2dg" x="229" y="202"/><use xlink:href="#gSlb3mhk7d2dg" x="-27" y="202"/><use xlink:href="#gSlb3mhk7d2dg" x="250" y="79"/><use xlink:href="#gSlb3mhk7d2dg" x="-6" y="79"/><use xlink:href="#gSlb3mhk7d2dg" x="79" y="122"/><use xlink:href="#gSlb3mhk7d2df" x="58" y="244"/><use xlink:href="#gSlb3mhk7d2df" x="58" y="-12"/><use xlink:href="#gSlb3mhk7d2dg" x="116" y="101"/><use xlink:href="#gSlb3mhk7d2dg" x="52" y="52"/><use xlink:href="#gSlb3mhk7d2df" x="180" y="52"/><use xlink:href="#gSlb3mhk7d2dg" x="58" y="74"/><use xlink:href="#gSlb3mhk7d2df" x="143" y="202"/><use xlink:href="#gSlb3mhk7d2df" x="15" y="31"/><use xlink:href="#gSlb3mhk7d2df" x="271" y="31"/><use xlink:href="#gSlb3mhk7d2df" x="271" y="287"/><use xlink:href="#gSlb3mhk7d2df" x="15" y="287"/><use xlink:href="#gSlb3mhk7d2df" x="271" y="287"/><use xlink:href="#gSlb3mhk7d2df" x="10" y="52"/><use xlink:href="#gSlb3mhk7d2df" x="266" y="52"/><use xlink:href="#gSlb3mhk7d2df" x="207" y="250"/><use xlink:href="#gSlb3mhk7d2df" x="207" y="-6"/><use xlink:href="#gSlb3mhk7d2dg" x="159" y="101"/><use xlink:href="#gSlb3mhk7d2df" x="15" y="244"/><use xlink:href="#gSlb3mhk7d2df" x="271" y="244"/><use xlink:href="#gSlb3mhk7d2df" x="271" y="-12"/><use xlink:href="#gSlb3mhk7d2df" x="15" y="-12"/><use xlink:href="#gSlb3mhk7d2df" x="271" y="-12"/><use xlink:href="#gSlb3mhk7d2dg" x="229" y="74"/><use xlink:href="#gSlb3mhk7d2dg" x="-27" y="74"/><use xlink:href="#gSlb3mhk7d2dg" x="15" y="159"/><use xlink:href="#gSlb3mhk7d2dg" x="271" y="159"/><use xlink:href="#gSlb3mhk7d2dg" x="10" y="95"/><use xlink:href="#gSlb3mhk7d2dg" x="266" y="95"/><use xlink:href="#gSlb3mhk7d2dg" x="250" y="207"/><use xlink:href="#gSlb3mhk7d2dg" x="-6" y="207"/><use xlink:href="#gSlb3mhk7d2dg" x="244" y="186"/><use xlink:href="#gSlb3mhk7d2dg" x="-12" y="186"/><use xlink:href="#gSlb3mhk7d2dg" x="180" y="95"/><use xlink:href="#gSlb3mhk7d2df" x="202" y="58"/><use xlink:href="#gSlb3mhk7d2df" x="244" y="58"/><use xlink:href="#gSlb3mhk7d2df" x="-12" y="58"/><use xlink:href="#gSlb3mhk7d2dg" x="116" y="229"/><use xlink:href="#gSlb3mhk7d2dg" x="116" y="-27"/><use xlink:href="#gSlb3mhk7d2df" x="180" y="138"/><use xlink:href="#gSlb3mhk7d2dg" x="95" y="138"/><use xlink:href="#gSlb3mhk7d2dg" x="122" y="165"/><use xlink:href="#gSlb3mhk7d2dg" x="250" y="250"/><use xlink:href="#gSlb3mhk7d2dg" x="-6" y="250"/><use xlink:href="#gSlb3mhk7d2dg" x="-6" y="-6"/><use xlink:href="#gSlb3mhk7d2dg" x="250" y="-6"/><use xlink:href="#gSlb3mhk7d2dg" x="-6" y="-6"/><use xlink:href="#gSlb3mhk7d2df" x="52" y="138"/><use xlink:href="#gSlb3mhk7d2df" x="207" y="165"/><use xlink:href="#gSlb3mhk7d2df" x="244" y="101"/><use xlink:href="#gSlb3mhk7d2df" x="-12" y="101"/><use xlink:href="#gSlb3mhk7d2dg" x="229" y="31"/><use xlink:href="#gSlb3mhk7d2dg" x="-27" y="31"/><use xlink:href="#gSlb3mhk7d2dg" x="-27" y="287"/><use xlink:href="#gSlb3mhk7d2dg" x="229" y="287"/><use xlink:href="#gSlb3mhk7d2dg" x="-27" y="287"/><use xlink:href="#gSlb3mhk7d2dg" x="159" y="186"/><use xlink:href="#gSlb3mhk7d2dg" x="207" y="79"/><use xlink:href="#gSlb3mhk7d2df" x="165" y="250"/><use xlink:href="#gSlb3mhk7d2df" x="165" y="-6"/><use xlink:href="#gSlb3mhk7d2dg" x="229" y="244"/><use xlink:href="#gSlb3mhk7d2dg" x="-27" y="244"/><use xlink:href="#gSlb3mhk7d2dg" x="-27" y="-12"/><use xlink:href="#gSlb3mhk7d2dg" x="229" y="-12"/><use xlink:href="#gSlb3mhk7d2dg" x="-27" y="-12"/><use xlink:href="#gSlb3mhk7d2dg" x="74" y="186"/><use xlink:href="#gSlb3mhk7d2df" x="165" y="165"/><use xlink:href="#gSlb3mhk7d2dg" x="10" y="10"/><use xlink:href="#gSlb3mhk7d2dg" x="266" y="10"/><use xlink:href="#gSlb3mhk7d2dg" x="266" y="266"/><use xlink:href="#gSlb3mhk7d2dg" x="10" y="266"/><use xlink:href="#gSlb3mhk7d2dg" x="266" y="266"/><use xlink:href="#gSlb3mhk7d2df" x="15" y="74"/><use xlink:href="#gSlb3mhk7d2df" x="271" y="74"/><use xlink:href="#gSlb3mhk7d2df" x="223" y="180"/><use xlink:href="#gSlb3mhk7d2df" x="116" y="58"/><use xlink:href="#gSlb3mhk7d2dg" x="31" y="58"/><use xlink:href="#gSlb3mhk7d2dg" x="287" y="58"/><use xlink:href="#gSlb3mhk7d2df" x="229" y="159"/><use xlink:href="#gSlb3mhk7d2df" x="-27" y="159"/><use xlink:href="#gSlb3mhk7d2dg" x="159" y="58"/><use xlink:href="#gSlb3mhk7d2dg" x="95" y="52"/><use xlink:href="#gSlb3mhk7d2dg" x="138" y="10"/><use xlink:href="#gSlb3mhk7d2dg" x="138" y="266"/><use xlink:href="#gSlb3mhk7d2dg" x="202" y="229"/><use xlink:href="#gSlb3mhk7d2dg" x="202" y="-27"/><use xlink:href="#gSlb3mhk7d2dg" x="165" y="122"/><use xlink:href="#gSlb3mhk7d2df" x="138" y="138"/><use xlink:href="#gSlb3mhk7d2df" x="202" y="143"/><use xlink:href="#gSlb3mhk7d2dg" x="74" y="143"/><use xlink:href="#gSlb3mhk7d2df" x="138" y="95"/><use xlink:href="#gSlb3mhk7d2df" x="31" y="229"/><use xlink:href="#gSlb3mhk7d2df" x="287" y="229"/><use xlink:href="#gSlb3mhk7d2df" x="287" y="-27"/><use xlink:href="#gSlb3mhk7d2df" x="31" y="-27"/><use xlink:href="#gSlb3mhk7d2df" x="287" y="-27"/><use xlink:href="#gSlb3mhk7d2df" x="159" y="15"/><use xlink:href="#gSlb3mhk7d2df" x="159" y="271"/><use xlink:href="#gSlb3mhk7d2dg" x="207" y="207"/><use xlink:href="#gSlb3mhk7d2df" x="207" y="122"/><use xlink:href="#gSlb3mhk7d2df" x="186" y="74"/><use xlink:href="#gSlb3mhk7d2df" x="159" y="229"/><use xlink:href="#gSlb3mhk7d2df" x="159" y="-27"/><use xlink:href="#gSlb3mhk7d2dg" x="138" y="223"/><use xlink:href="#gSlb3mhk7d2df" x="223" y="223"/></g>
			<desc>Created with Snap</desc></svg>
