<svg xmlns="http://www.w3.org/2000/svg" id="Svg" width="256" height="256">
				<defs>
					<clipPath id="clipPath">
						
					<rect x="0" y="0" width="256" height="256"/></clipPath>
				<g transform="matrix(1,0,0,1,-6,-8)" id="gSlb3lvgnf46l"><g><path d="M 5 6 L 5 7 L 11 7 L 11 6 L 5 6 z M 1 9 L 1 10 L 7 10 L 7 9 L 1 9 z"/></g></g></defs>
				<g id="Pattern" style="clip-path: url(#clipPath);">
				<use a0:href="#gSlb3lvgnf46l" xmlns:a0="http://www.w3.org/1999/xlink" x="240" y="177"/><use a1:href="#gSlb3lvgnf46l" xmlns:a1="http://www.w3.org/1999/xlink" x="-16" y="177"/><use a2:href="#gSlb3lvgnf46l" xmlns:a2="http://www.w3.org/1999/xlink" x="14" y="22"/><use a3:href="#gSlb3lvgnf46l" xmlns:a3="http://www.w3.org/1999/xlink" x="270" y="22"/><use a4:href="#gSlb3lvgnf46l" xmlns:a4="http://www.w3.org/1999/xlink" x="270" y="278"/><use a5:href="#gSlb3lvgnf46l" xmlns:a5="http://www.w3.org/1999/xlink" x="14" y="278"/><use a6:href="#gSlb3lvgnf46l" xmlns:a6="http://www.w3.org/1999/xlink" x="270" y="278"/><use a7:href="#gSlb3lvgnf46l" xmlns:a7="http://www.w3.org/1999/xlink" x="193" y="89"/><use a8:href="#gSlb3lvgnf46l" xmlns:a8="http://www.w3.org/1999/xlink" x="32" y="66"/><use a9:href="#gSlb3lvgnf46l" xmlns:a9="http://www.w3.org/1999/xlink" x="199" y="238"/><use a10:href="#gSlb3lvgnf46l" xmlns:a10="http://www.w3.org/1999/xlink" x="199" y="-18"/><use a11:href="#gSlb3lvgnf46l" xmlns:a11="http://www.w3.org/1999/xlink" x="93" y="85"/><use a12:href="#gSlb3lvgnf46l" xmlns:a12="http://www.w3.org/1999/xlink" x="216" y="235"/><use a13:href="#gSlb3lvgnf46l" xmlns:a13="http://www.w3.org/1999/xlink" x="216" y="-21"/><use a14:href="#gSlb3lvgnf46l" xmlns:a14="http://www.w3.org/1999/xlink" x="113" y="240"/><use a15:href="#gSlb3lvgnf46l" xmlns:a15="http://www.w3.org/1999/xlink" x="113" y="-16"/><use a16:href="#gSlb3lvgnf46l" xmlns:a16="http://www.w3.org/1999/xlink" x="226" y="33"/><use a17:href="#gSlb3lvgnf46l" xmlns:a17="http://www.w3.org/1999/xlink" x="-30" y="33"/><use a18:href="#gSlb3lvgnf46l" xmlns:a18="http://www.w3.org/1999/xlink" x="212" y="64"/><use a19:href="#gSlb3lvgnf46l" xmlns:a19="http://www.w3.org/1999/xlink" x="68" y="141"/><use a20:href="#gSlb3lvgnf46l" xmlns:a20="http://www.w3.org/1999/xlink" x="136" y="12"/><use a21:href="#gSlb3lvgnf46l" xmlns:a21="http://www.w3.org/1999/xlink" x="136" y="268"/><use a22:href="#gSlb3lvgnf46l" xmlns:a22="http://www.w3.org/1999/xlink" x="139" y="106"/><use a23:href="#gSlb3lvgnf46l" xmlns:a23="http://www.w3.org/1999/xlink" x="118" y="191"/><use a24:href="#gSlb3lvgnf46l" xmlns:a24="http://www.w3.org/1999/xlink" x="70" y="167"/><use a25:href="#gSlb3lvgnf46l" xmlns:a25="http://www.w3.org/1999/xlink" x="156" y="37"/><use a26:href="#gSlb3lvgnf46l" xmlns:a26="http://www.w3.org/1999/xlink" x="193" y="143"/><use a27:href="#gSlb3lvgnf46l" xmlns:a27="http://www.w3.org/1999/xlink" x="65" y="242"/><use a28:href="#gSlb3lvgnf46l" xmlns:a28="http://www.w3.org/1999/xlink" x="65" y="-14"/><use a29:href="#gSlb3lvgnf46l" xmlns:a29="http://www.w3.org/1999/xlink" x="89" y="43"/><use a30:href="#gSlb3lvgnf46l" xmlns:a30="http://www.w3.org/1999/xlink" x="216" y="120"/><use a31:href="#gSlb3lvgnf46l" xmlns:a31="http://www.w3.org/1999/xlink" x="138" y="54"/><use a32:href="#gSlb3lvgnf46l" xmlns:a32="http://www.w3.org/1999/xlink" x="37" y="126"/><use a33:href="#gSlb3lvgnf46l" xmlns:a33="http://www.w3.org/1999/xlink" x="32" y="190"/><use a34:href="#gSlb3lvgnf46l" xmlns:a34="http://www.w3.org/1999/xlink" x="157" y="156"/><use a35:href="#gSlb3lvgnf46l" xmlns:a35="http://www.w3.org/1999/xlink" x="43" y="231"/><use a36:href="#gSlb3lvgnf46l" xmlns:a36="http://www.w3.org/1999/xlink" x="43" y="-25"/></g>
			<desc>Created with Snap</desc></svg>