<svg xmlns="http://www.w3.org/2000/svg" id="Svg" width="64" height="64">
				<defs>
					<clipPath id="clipPath">
						
					<rect x="0" y="0" width="64" height="64"/></clipPath>
				<g style="" fill="#b7b7b7" transform="matrix(1,0,0,1,0,0)" id="gSlbbds85m2qe"><g><path d="M 2.7,0 C 1.4766883,0 0,1.5921362 0,3.0735241 c 0,1.6153164 1.1338312,2.9260415 2.625,2.9260415 0.049486,0 0.17617,0.00157 0.225,-0.00125 L 6,5.9995656 6,5.5 4.0714286,5.5 C 4.723781,4.9661089 5.4,4.0274571 5.4,3.0735241 5.4,1.7483862 3.9456329,0 2.7,0 z M 2.3776786,0.70530284 C 3.5179383,0.67100514 4.5,2.0734808 4.5,3.2235133 4.5,4.5074736 3.4082675,5.6468765 2.5577479,5.6245551 1.4397562,5.595214 0.33843316,4.4933828 0.35921637,3.2095906 0.3815378,1.8307818 1.504947,0.73155361 2.3776786,0.70530284 z"/></g></g></defs>
				<g id="Pattern" style="clip-path: url(#clipPath);">
				<use a0:href="#gSlbbds85m2qe" xmlns:a0="http://www.w3.org/1999/xlink" x="16" y="16"/><use a1:href="#gSlbbds85m2qe" xmlns:a1="http://www.w3.org/1999/xlink" x="80" y="16"/><use a2:href="#gSlbbds85m2qe" xmlns:a2="http://www.w3.org/1999/xlink" x="80" y="80"/><use a3:href="#gSlbbds85m2qe" xmlns:a3="http://www.w3.org/1999/xlink" x="16" y="80"/><use a4:href="#gSlbbds85m2qe" xmlns:a4="http://www.w3.org/1999/xlink" x="80" y="80"/><use a5:href="#gSlbbds85m2qe" xmlns:a5="http://www.w3.org/1999/xlink" x="48" y="48"/><use a6:href="#gSlbbds85m2qe" xmlns:a6="http://www.w3.org/1999/xlink" x="-16" y="48"/><use a7:href="#gSlbbds85m2qe" xmlns:a7="http://www.w3.org/1999/xlink" x="-16" y="-16"/><use a8:href="#gSlbbds85m2qe" xmlns:a8="http://www.w3.org/1999/xlink" x="48" y="-16"/><use a9:href="#gSlbbds85m2qe" xmlns:a9="http://www.w3.org/1999/xlink" x="-16" y="-16"/><use a10:href="#gSlbbds85m2qe" xmlns:a10="http://www.w3.org/1999/xlink" x="16" y="48"/><use a11:href="#gSlbbds85m2qe" xmlns:a11="http://www.w3.org/1999/xlink" x="80" y="48"/><use a12:href="#gSlbbds85m2qe" xmlns:a12="http://www.w3.org/1999/xlink" x="80" y="-16"/><use a13:href="#gSlbbds85m2qe" xmlns:a13="http://www.w3.org/1999/xlink" x="16" y="-16"/><use a14:href="#gSlbbds85m2qe" xmlns:a14="http://www.w3.org/1999/xlink" x="80" y="-16"/><use a15:href="#gSlbbds85m2qe" xmlns:a15="http://www.w3.org/1999/xlink" x="48" y="16"/><use a16:href="#gSlbbds85m2qe" xmlns:a16="http://www.w3.org/1999/xlink" x="-16" y="16"/><use a17:href="#gSlbbds85m2qe" xmlns:a17="http://www.w3.org/1999/xlink" x="-16" y="80"/><use a18:href="#gSlbbds85m2qe" xmlns:a18="http://www.w3.org/1999/xlink" x="48" y="80"/><use a19:href="#gSlbbds85m2qe" xmlns:a19="http://www.w3.org/1999/xlink" x="-16" y="80"/></g>
			<desc>Created with Snap</desc></svg>