<?xml version="1.0" encoding="UTF-8" standalone="no"?>
<svg
   xmlns:dc="http://purl.org/dc/elements/1.1/"
   xmlns:cc="http://creativecommons.org/ns#"
   xmlns:rdf="http://www.w3.org/1999/02/22-rdf-syntax-ns#"
   xmlns:svg="http://www.w3.org/2000/svg"
   xmlns="http://www.w3.org/2000/svg"
   id="svg4"
   version="1.1"
   viewBox="0 0 400 400"
   height="400"
   width="400">
  <metadata
     id="metadata10">
    <rdf:RDF>
      <cc:Work
         rdf:about="">
        <dc:format>image/svg+xml</dc:format>
        <dc:type
           rdf:resource="http://purl.org/dc/dcmitype/StillImage" />
        <dc:title></dc:title>
      </cc:Work>
    </rdf:RDF>
  </metadata>
  <defs
     id="defs8" />
  <path
     d="m 58.814663,58.835987 c 26.00072,-26.00072 53.998017,-42.17741 89.499767,-51.6926401 35.51151,-9.52854 67.85513,-9.51523 103.37108,-0.0142 35.51506,9.5294301 63.51945,25.7061201 89.51663,51.7068401 25.99007,25.98297 42.15345,53.973173 51.66158,89.474923 9.51434,35.52571 9.51434,67.85602 0.003,103.38528 -9.51435,35.4982 -25.69192,63.50171 -51.69175,89.50243 -25.98741,25.98297 -53.97406,42.14635 -89.48558,51.67489 -35.51595,9.49748 -67.85956,9.51168 -103.37462,-0.0168 -35.49465,-9.51525 -63.481297,-25.67508 -89.467817,-51.6616 -26.00073,-26.00072 -42.1783,-54.00423 -51.7103895,-89.52018 -9.51522,-35.4982 -9.51522,-67.85513 0,-103.35688 C 16.661553,112.8092 32.828483,84.822547 58.815003,58.836017 Z"
     style="fill:#000000;fill-opacity:1;fill-rule:evenodd;stroke:none;stroke-width:6.65524769;stroke-miterlimit:4;stroke-dasharray:none;stroke-opacity:1"
     id="path5654" />
  <path
     d="m 65.416404,65.410229 c 24.7664,-24.76639 51.467246,-40.19858 85.318486,-49.24527 33.84503,-9.0786499 64.70143,-9.0786499 98.53582,-0.0178 33.84504,9.04759 60.56276,24.49309 85.34335,49.27723 24.76994,24.76639 40.16753,51.470791 49.22842,85.298081 9.06356,33.86545 9.06356,64.69079 0.003,98.55269 -9.06356,33.83084 -24.47889,60.54944 -49.24528,85.31583 -24.78326,24.77971 -51.48411,40.2119 -85.32915,49.25859 -33.8344,9.06445 -64.69079,9.06445 -98.53937,-0.0133 -33.84769,-9.04759 -60.531686,-24.46557 -85.301626,-49.22842 -24.77971,-24.7868 -40.2261,-51.50185 -49.26925,-85.34601 -9.0679901,-33.83084 -9.0679901,-64.69167 0,-98.52251 9.04315,-33.84415 24.47534,-60.548551 49.25594,-85.329141 z"
     style="fill:#ffffff;fill-opacity:1;fill-rule:evenodd;stroke:none;stroke-width:0.88736415"
     id="path5656" />
  <path
     style="stroke-width:21.33333206"
     id="path2"
     d="m 200,72 c -15.90102,0 -21.33334,42.66666 -21.33334,42.66666 v 42 L 72,232 v 21.33334 L 178.66666,226.66666 V 278 L 136,306.66666 V 328 l 64,-16 64,16 V 306.66666 L 221.33334,278 V 226.66666 L 328,253.33334 V 232 L 221.33334,156.66666 v -42 C 221.33334,114.66666 215.90102,72 200,72 Z" />
</svg>
