<?xml version="1.0" encoding="UTF-8" standalone="no"?>
<svg
   xmlns:dc="http://purl.org/dc/elements/1.1/"
   xmlns:cc="http://creativecommons.org/ns#"
   xmlns:rdf="http://www.w3.org/1999/02/22-rdf-syntax-ns#"
   xmlns:svg="http://www.w3.org/2000/svg"
   xmlns="http://www.w3.org/2000/svg"
   id="svg10"
   viewBox="0 0 14 14"
   version="1.1"
   height="14"
   width="14">
  <defs
     id="defs14" />
  <metadata
     id="metadata2">
    <rdf:RDF>
      <cc:Work
         rdf:about="">
        <dc:format>image/svg+xml</dc:format>
        <dc:type
           rdf:resource="http://purl.org/dc/dcmitype/StillImage" />
        <dc:title></dc:title>
      </cc:Work>
    </rdf:RDF>
  </metadata>
  <rect
     id="rect4"
     visibility="hidden"
     fill="none"
     height="14"
     width="14" />
  <path
     d="m 0,9 v 3 c 0.707,0 2.0540513,2 2.8007812,2 0.6662,0 2.0882682,-2 2.7988282,-2 0.7059,0 2.1310612,2 2.8007812,2 0.7048,0 2.1349384,-2 2.7988284,-2 0.665,0 2.096061,2 2.800781,2 v -3 c -0.581,0 -2.052881,-2.029 -2.800781,-2 -0.6698,0 -2.0497684,2 -2.7988284,2 -0.623,0 -2.0948812,-2 -2.8007812,-2 -0.7059,0 -2.1746082,2 -2.7988282,2 C 2.1345813,11 0.7479,9 0,9 Z"
     id="path8"
     style="fill:#000000;fill-opacity:1;stroke:none" />
</svg>
