<?xml version="1.0" encoding="UTF-8" standalone="no"?>
<svg
   xmlns:dc="http://purl.org/dc/elements/1.1/"
   xmlns:cc="http://creativecommons.org/ns#"
   xmlns:rdf="http://www.w3.org/1999/02/22-rdf-syntax-ns#"
   xmlns:svg="http://www.w3.org/2000/svg"
   xmlns="http://www.w3.org/2000/svg"
   xmlns:sodipodi="http://sodipodi.sourceforge.net/DTD/sodipodi-0.dtd"
   xmlns:inkscape="http://www.inkscape.org/namespaces/inkscape"
   viewBox="0 0 602.29999 602.29999"
   height="602.29999"
   width="602.29999"
   xml:space="preserve"
   version="1.1"
   id="svg5303"
   sodipodi:docname="gehweg.svg"
   inkscape:version="1.0.2-2 (e86c870879, 2021-01-15)"><sodipodi:namedview
     pagecolor="#ffffff"
     bordercolor="#666666"
     borderopacity="1"
     objecttolerance="10"
     gridtolerance="10"
     guidetolerance="10"
     inkscape:pageopacity="0"
     inkscape:pageshadow="2"
     inkscape:window-width="1920"
     inkscape:window-height="1001"
     id="namedview7563"
     showgrid="false"
     inkscape:zoom="1.2203221"
     inkscape:cx="301.14999"
     inkscape:cy="301.14999"
     inkscape:window-x="-9"
     inkscape:window-y="-9"
     inkscape:window-maximized="1"
     inkscape:current-layer="svg5303" /><metadata
     id="metadata5309"><rdf:RDF><cc:Work
         rdf:about=""><dc:format>image/svg+xml</dc:format><dc:type
           rdf:resource="http://purl.org/dc/dcmitype/StillImage" /><dc:title></dc:title></cc:Work></rdf:RDF></metadata><defs
     id="defs5307" /><path
     id="path5315"
     style="fill:#000000;fill-opacity:1;fill-rule:evenodd;stroke:none;stroke-width:1.25"
     d="m 513.53,88.82874 c 39.0975,39.09625 63.4375,81.245 77.75375,134.6575 14.31625,53.4625 14.31625,102.14375 0,155.605 -14.31125,53.41375 -38.67625,95.58625 -77.7975,134.7075 -39.09625,39.09625 -81.25,63.4425 -134.6875,77.77875 -53.4325,14.29125 -102.14375,14.31125 -155.57625,-0.025 C 169.805,577.23624 127.65625,552.89499 88.56,513.79874 49.43875,474.67749 25.07375,432.50499 10.7375,379.06749 c -14.31625,-53.41375 -14.31625,-102.14375 0,-155.55625 14.33625,-53.4325 38.67625,-95.58625 77.77875,-134.6825 39.115,-39.12125 81.29375,-63.4875 134.70125,-77.80375 53.4375,-14.335 102.14875,-14.31625 155.58625,-0.02375 53.4325,14.34 95.605,38.70125 134.72625,77.8275 z m -0.35125,0.35125 C 474.11125,50.11249 432.03625,25.80124 378.6725,11.48499 325.3075,-2.78751 276.70875,-2.81251 223.35,11.50874 170.005,25.80624 127.935,50.11249 88.8675,89.17999 c -39.04375,39.0475 -63.335,81.09875 -77.65125,134.4575 -14.2925,53.34 -14.2925,101.95875 0.005,155.2975 14.31625,53.365 38.6275,95.44 77.695,134.5075 39.0425,39.0425 81.09875,63.33 134.43375,77.62625 53.36375,14.3175 101.9575,14.2925 155.3225,0.025 53.36375,-14.31625 95.415,-38.60375 134.4625,-77.64625 39.0675,-39.0675 63.37375,-81.1425 77.66625,-134.4875 14.29625,-53.38375 14.29625,-101.9575 0,-155.34125 -14.2875,-53.34 -38.58,-95.39625 -77.6225,-134.43875 z" /><path
     id="path5317"
     style="fill:#000000;fill-opacity:1;fill-rule:evenodd;stroke:none;stroke-width:1.25"
     d="M 88.8675,89.17999 C 127.935,50.11249 170.005,25.80624 223.35,11.50874 276.70875,-2.81251 325.3075,-2.78751 378.6725,11.48499 c 53.36375,14.32125 95.43875,38.6275 134.50625,77.695 39.0475,39.0425 63.335,81.09875 77.6225,134.43875 14.29625,53.38375 14.29625,101.9625 0.005,155.34625 -14.2975,53.34 -38.60375,95.415 -77.67125,134.4825 -39.0475,39.0425 -81.09875,63.33 -134.45875,77.64625 -53.36375,14.2725 -101.9625,14.2925 -155.32625,-0.025 -53.335,-14.29625 -95.38625,-38.57875 -134.43375,-77.62625 -39.0675,-39.0675 -63.37375,-81.1425 -77.695,-134.5075 -14.2975,-53.33875 -14.2975,-101.9575 0,-155.3025 14.31125,-53.35375 38.6025,-95.405 77.64625,-134.4525 z" /><path
     id="path5319"
     style="fill:#ffffff;fill-opacity:1;fill-rule:evenodd;stroke:none;stroke-width:1.25"
     d="m 98.79375,99.05749 c 37.2125,-37.21125 77.33375,-60.4 128.19375,-73.99375 50.85375,-13.6425 97.22125,-13.6425 148.05625,-0.025 50.855,13.59375 91.00125,36.8025 128.2375,74.03875 37.21625,37.21625 60.35125,77.33875 73.97,128.16875 13.6175,50.88375 13.6175,97.2025 0.005,148.08125 -13.62375,50.835 -36.7825,90.98125 -73.995,128.1925 -37.24125,37.23625 -77.3625,60.425 -128.2175,74.01875 -50.835,13.61875 -97.2025,13.61875 -148.06125,-0.0237 -50.855,-13.59375 -90.9525,-36.75875 -128.16875,-73.97 -37.23625,-37.24125 -60.445,-77.3825 -74.03375,-128.2375 -13.6225,-50.835 -13.6225,-97.2025 0,-148.0375 13.58875,-50.85375 36.7775,-90.97625 74.01375,-128.2125 z" /><path
     id="path5321"
     style="fill:#000000;fill-opacity:1;fill-rule:nonzero;stroke:none;stroke-width:1.25"
     d="m 406.17625,288.55499 c 0,-16.39625 -13.305,-29.7175 -29.71625,-29.7175 -16.41625,0 -29.72125,13.32125 -29.72125,29.7175 0,16.41625 13.305,29.73125 29.72125,29.73125 16.41125,0 29.71625,-13.315 29.71625,-29.73125 z M 261.85,114.51124 c 0,18.75 -15.21375,33.965 -33.96375,33.965 -18.75,0 -33.97,-15.215 -33.97,-33.965 0,-18.755 15.22,-33.955 33.97,-33.955 18.75,0 33.96375,15.2 33.96375,33.955 z m -67.93375,173.22375 5.96125,-5.855 c 1.62625,-1.60625 2.535,-3.78 2.535,-6.055 v -63.68125 c 0,-2.33375 -1.895,-4.23375 -4.24875,-4.23375 -2.33375,0 -4.2475,1.9 -4.2475,4.23375 z m -50.9375,98.45125 c 4.8825,-32.505 18.98875,-62.93875 40.65375,-87.66625 -9.77,-10.9075 -15.185,-25.02875 -15.185,-39.6825 v -33.95 c 0,-32.8275 26.60625,-59.43875 59.43875,-59.43875 22.1625,0 42.475,12.335 52.71375,31.9925 l 35.28375,67.76875 c 5.0975,9.82875 3.29125,21.82625 -4.50625,29.6875 l 35.0575,29.41375 c 11.88,9.98125 27.93,13.40875 42.8575,9.14625 l 6.27875,-1.8075 c 6.49375,-1.83125 13.47125,0.3375 17.76375,5.5575 l 43.18875,52.485 c 7.34375,8.92125 6.20625,22.09 -2.57875,29.6 l -39.2725,-45.83 12.725,63.68125 -16.275,2.3975 9.78625,61.72875 c 0.9225,5.795 -3.0525,11.225 -8.83375,12.1475 -5.64,0.88 -10.98125,-2.85125 -12.075,-8.44625 l -12.04125,-61.9875 -13.76,2.03625 -6.27875,67.3825 c -0.5325,5.84 -5.7075,10.13125 -11.5475,9.59 -5.68875,-0.5325 -9.9375,-5.47875 -9.6,-11.1825 l 8.4625,-145.84375 -60.45,-57.15875 c -5.63,-7.89 -5.205,-18.58375 1.01625,-26.00625 l -37.6375,-72.31375 c -0.65375,-1.22625 -2.1875,-1.72875 -3.4275,-1.075 -0.85,0.44 -1.38125,1.31875 -1.38125,2.26125 v 65.15125 c 0,2.275 0.9075,4.44875 2.53375,6.055 l 7.53875,7.4175 c 26.51875,26.09375 43.83875,60.1025 49.36,96.88875 z m 89.15,8.49625 h 25.47375 v 114.61 c 0,7.04 -5.7025,12.74375 -12.74375,12.74375 -7.02125,0 -12.73,-5.70375 -12.73,-12.74375 z m -33.965,0 h 25.47375 v 89.14125 c 0,7.03625 -5.7075,12.74375 -12.72875,12.74375 -7.04125,0 -12.745,-5.7075 -12.745,-12.74375" /></svg>
