<svg xmlns="http://www.w3.org/2000/svg" id="Svg" width="64" height="64">
				<defs>
					<clipPath id="clipPath">
						
					<rect x="0" y="0" width="64" height="64"/></clipPath>
				<g transform="matrix(1,0,0,1,0,0)" id="gSlbbds85mq0"><g><path d="M 3.6,0 C 1.611775,0 0,1.9444176 0,4.0983289 0,6.25224 1.511775,8 3.5,8 c 0.065981,0 0.2348934,0.00209 0.3,-0.00167 L 8,8 8,7.2 5.775,7.19832 C 6.6448032,6.4864136 7.2,5.3703316 7.2,4.0983289 7.2,1.9444176 5.5882248,0 3.6,0 z M 3.2,1 C 4.6911689,1 6,2.586257 6,4.2983289 6,6.0104 4.7911689,7.3983288 3.3,7.3983288 1.8088311,7.3983288 0.5,5.9620711 0.5,4.25 0.5,2.2031067 1.7088311,1 3.2,1 z"/></g></g></defs>
				<g id="Pattern" style="clip-path: url(#clipPath);">
				<use a0:href="#gSlbbds85mq0" xmlns:a0="http://www.w3.org/1999/xlink" x="32" y="32"/></g>
			<desc>Created with Snap</desc></svg>