<?xml version="1.0" encoding="UTF-8" standalone="no"?>
<svg
   xmlns:dc="http://purl.org/dc/elements/1.1/"
   xmlns:cc="http://creativecommons.org/ns#"
   xmlns:rdf="http://www.w3.org/1999/02/22-rdf-syntax-ns#"
   xmlns:svg="http://www.w3.org/2000/svg"
   xmlns="http://www.w3.org/2000/svg"
   xmlns:sodipodi="http://sodipodi.sourceforge.net/DTD/sodipodi-0.dtd"
   xmlns:inkscape="http://www.inkscape.org/namespaces/inkscape"
   id="svg17"
   version="1.1"
   height="800"
   width="800"
   sodipodi:docname="moschee.svg"
   inkscape:version="0.92.5 (2060ec1f9f, 2020-04-08)">
  <sodipodi:namedview
     pagecolor="#ffffff"
     bordercolor="#666666"
     borderopacity="1"
     objecttolerance="10"
     gridtolerance="10"
     guidetolerance="10"
     inkscape:pageopacity="0"
     inkscape:pageshadow="2"
     inkscape:window-width="1848"
     inkscape:window-height="1016"
     id="namedview9"
     showgrid="false"
     inkscape:zoom="0.295"
     inkscape:cx="-38.983051"
     inkscape:cy="400"
     inkscape:window-x="72"
     inkscape:window-y="27"
     inkscape:window-maximized="1"
     inkscape:current-layer="svg17" />
  <metadata
     id="metadata23">
    <rdf:RDF>
      <cc:Work
         rdf:about="">
        <dc:format>image/svg+xml</dc:format>
        <dc:type
           rdf:resource="http://purl.org/dc/dcmitype/StillImage" />
        <dc:title />
      </cc:Work>
    </rdf:RDF>
  </metadata>
  <defs
     id="defs21" />
  <g
     id="g825">
    <line
       x1="400"
       y1="404.38852"
       x2="400"
       y2="262.56064"
       id="line4"
       style="fill:#f60000;fill-opacity:1;stroke:#000000;stroke-width:20;stroke-linecap:round;stroke-linejoin:round" />
    <path
       style="fill:#000000;fill-opacity:1;stroke-width:0.99999994"
       d="m 368.99474,128.56954 a 83.636239,83.636239 0 0 0 -16.01714,117.18998 83.636239,83.636239 0 0 0 117.18999,16.01713 83.636239,83.636239 0 0 0 32.22028,-55.21069 66.908991,66.908991 0 0 1 -20.13639,25.02784 66.908991,66.908991 0 0 1 -93.75199,-12.81372 66.908991,66.908991 0 0 1 12.81371,-93.75198 66.908991,66.908991 0 0 1 29.50288,-12.67761 83.636239,83.636239 0 0 0 -61.82134,16.21905 z"
       id="circle2278"
       inkscape:connector-curvature="0" />
    <circle
       cx="400"
       cy="-400"
       r="87.5"
       id="circle2"
       style="fill:#ffffff;fill-opacity:1;stroke:#000000;stroke-width:30;stroke-linecap:round;stroke-linejoin:round"
       transform="scale(1,-1)" />
  </g>
</svg>
