<?xml version="1.0" encoding="UTF-8" standalone="no"?>
<svg
   xmlns:dc="http://purl.org/dc/elements/1.1/"
   xmlns:cc="http://creativecommons.org/ns#"
   xmlns:rdf="http://www.w3.org/1999/02/22-rdf-syntax-ns#"
   xmlns:svg="http://www.w3.org/2000/svg"
   xmlns="http://www.w3.org/2000/svg"
   xmlns:sodipodi="http://sodipodi.sourceforge.net/DTD/sodipodi-0.dtd"
   xmlns:inkscape="http://www.inkscape.org/namespaces/inkscape"
   viewBox="0 0 602.02197 602.02386"
   height="602.02386"
   width="602.02197"
   xml:space="preserve"
   id="svg5640"
   version="1.1"
   sodipodi:docname="radweg.svg"
   inkscape:version="1.0.2-2 (e86c870879, 2021-01-15)"><sodipodi:namedview
     pagecolor="#ffffff"
     bordercolor="#666666"
     borderopacity="1"
     objecttolerance="10"
     gridtolerance="10"
     guidetolerance="10"
     inkscape:pageopacity="0"
     inkscape:pageshadow="2"
     inkscape:window-width="1920"
     inkscape:window-height="1001"
     id="namedview6955"
     showgrid="false"
     inkscape:zoom="1.2208818"
     inkscape:cx="301.01099"
     inkscape:cy="202.72232"
     inkscape:window-x="-9"
     inkscape:window-y="-9"
     inkscape:window-maximized="1"
     inkscape:current-layer="svg5640" /><metadata
     id="metadata5646"><rdf:RDF><cc:Work
         rdf:about=""><dc:format>image/svg+xml</dc:format><dc:type
           rdf:resource="http://purl.org/dc/dcmitype/StillImage" /><dc:title></dc:title></cc:Work></rdf:RDF></metadata><defs
     id="defs5644" /><path
     id="path5652"
     style="fill:#000000;fill-opacity:1;fill-rule:evenodd;stroke:none;stroke-width:1.33333"
     d="m 513.53065,88.551903 c 39.1,39.093337 63.43867,81.245327 77.756,134.655997 14.312,53.464 14.312,102.14666 0,155.604 -14.31333,53.41733 -38.67733,95.58933 -77.79733,134.70933 -39.09867,39.09866 -81.25466,63.44266 -134.692,77.78133 -53.43333,14.29066 -102.14133,14.312 -155.57333,-0.0267 C 169.80666,576.95856 127.656,552.61989 88.557331,513.52123 49.437332,474.40123 25.073333,432.22923 10.74,378.7919 -3.5786666,325.37456 -3.5786666,276.64523 10.74,223.23457 25.073333,169.80257 49.411999,127.64524 88.515998,88.551903 127.63066,49.431904 169.812,25.062571 223.21866,10.745238 c 53.43733,-14.3333329 102.14533,-14.3133329 155.584,-0.02133 53.432,14.338666 95.60933,38.702665 134.72799,77.827998 z m -0.35333,0.349333 C 474.11465,49.833237 432.03599,25.526571 378.67199,11.207905 325.30666,-3.0680949 276.70799,-3.0880949 223.34933,11.229238 170.00533,25.526571 127.93733,49.833237 88.869331,88.901236 49.822665,127.9479 25.530666,169.9999 11.213333,223.3599 c -14.2919996,53.33866 -14.2919996,101.95733 0.0053,155.296 14.317333,53.36533 38.630666,95.44266 77.698665,134.51066 39.041332,39.04133 81.098672,63.328 134.432002,77.62533 53.364,14.31733 101.95733,14.292 155.32266,0.0253 53.364,-14.31733 95.416,-38.604 134.464,-77.64533 39.06666,-39.068 63.37466,-81.14533 77.66666,-134.48933 14.296,-53.38533 14.296,-101.95866 0,-155.33866 -14.28666,-53.344 -38.57866,-95.40133 -77.62533,-134.442664 z" /><path
     id="path5654"
     style="fill:#000000;fill-opacity:1;fill-rule:evenodd;stroke:none;stroke-width:10;stroke-opacity:1;stroke-miterlimit:4;stroke-dasharray:none"
     d="M 88.869331,88.901236 C 127.93733,49.833237 170.00533,25.526571 223.34933,11.229238 c 53.35866,-14.3173329 101.95733,-14.2973329 155.32266,-0.02133 53.364,14.318666 95.44266,38.625332 134.50533,77.693331 39.052,39.041331 63.33867,81.098661 77.62533,134.442661 14.296,53.38 14.296,101.95866 0.004,155.344 -14.296,53.33866 -38.604,95.41599 -77.67066,134.48399 -39.048,39.04133 -81.1,63.328 -134.45867,77.64533 -53.36533,14.27067 -101.96399,14.292 -155.32799,-0.0253 C 170.016,576.49456 127.964,552.21322 88.917331,513.16656 49.849332,474.09856 25.541333,432.02123 11.218666,378.6559 c -14.2973326,-53.33867 -14.2973326,-101.95734 0,-155.30133 14.312,-53.35467 38.603999,-95.40667 77.650665,-134.453334 z" /><path
     id="path5656"
     style="fill:#ffffff;fill-opacity:1;fill-rule:evenodd;stroke:none;stroke-width:1.33333"
     d="M 98.791998,98.781236 C 136.00533,61.567904 176.12533,38.379904 226.98933,24.786571 c 50.85466,-13.641333 97.21866,-13.641333 148.05733,-0.02667 50.85466,13.594667 91,36.802666 128.23466,74.042665 37.21867,37.213334 60.35467,77.338664 73.96933,128.166664 13.61867,50.88533 13.61867,97.20267 0.004,148.08267 -13.61866,50.83333 -36.78133,90.97999 -73.99466,128.19333 -37.23867,37.23333 -77.35867,60.42133 -128.21333,74.01466 -50.83867,13.62 -97.20267,13.62 -148.06267,-0.02 C 176.12533,563.64522 136.03066,540.47856 98.811998,503.27056 61.578665,466.02656 38.369332,425.88523 24.781333,375.0319 11.156,324.19856 11.156,277.8279 24.781333,226.99457 38.369332,176.14123 61.557332,136.0159 98.791998,98.781236 Z" /><path
     id="path5658"
     style="fill:#000000;fill-opacity:1;fill-rule:nonzero;stroke:none;stroke-width:1.33333"
     d="m 457.31732,420.37989 c -37.15066,9.584 -75.04666,-12.76 -84.63466,-49.91066 h 71.604 c 1.22933,0 2.42133,-0.26133 3.53066,-0.74533 4.38534,-1.95334 6.36,-7.08267 4.38534,-11.46934 l -32.036,-71.72266 c 0.80266,-0.256 1.604,-0.46934 2.412,-0.68267 37.13466,-9.58933 75.03066,12.744 84.63466,49.896 9.584,37.15067 -12.76,75.04666 -49.896,84.62933 z m -53.06666,-126.86933 26.64,59.604 h -60.42134 c 0,-24.42133 12.848,-47.05733 33.78134,-59.604 z m -51.136,59.604 h -17.36934 l 43.416,-115.77599 17.98934,40.22933 c -27.21334,15.41066 -44.036,44.26533 -44.036,75.54666 z M 317.54133,352.1879 208.80266,231.55723 h 153.97333 z m -92.18667,29.59866 c -15.83867,34.95333 -56.99466,50.42667 -91.948,34.604 C 98.469331,400.5519 82.978665,359.3799 98.817331,324.44256 111.912,295.54656 142.932,279.19323 174.16666,284.71323 l -20.36933,65.82267 c -1.43333,4.6 1.13467,9.45333 5.71867,10.876 4.57733,1.41066 9.448,-1.152 10.85866,-5.71867 l 20.39067,-65.83867 c 34.932,15.82267 50.42266,56.99467 34.58933,91.932 z m 297.14533,-55.584 c -14.864,-45.59866 -63.88,-70.50933 -109.464,-55.64 l -25.19733,-56.37466 6.52133,-17.37067 h 19.54133 V 179.4639 h -73.80266 c -2.01467,0 -3.76534,1.364 -4.23467,3.32267 -0.56133,2.33866 0.88667,4.672 3.22,5.23466 l 36.72267,8.80134 -6.504,17.36533 H 214.18799 l 6.96267,-22.49467 c 2.26133,-7.28133 8.98,-12.22933 16.59467,-12.22933 h 28.536 v -17.37067 h -28.536 c -15.22934,0 -28.68267,9.90667 -33.17734,24.45867 L 179.344,268.02657 c -40.47467,-8.21867 -81.130669,13.21333 -97.224002,51.24399 -18.693333,44.16134 1.973333,95.12 46.130662,113.808 44.16134,18.68667 95.11333,-1.95867 113.80667,-46.11466 18.688,-44.16134 -1.95867,-95.12 -46.136,-113.808 l 6.90666,-22.30133 102.65067,113.89599 c 3.29733,3.656 7.98,5.71867 12.896,5.71867 h 36.5 c 0.652,3.24933 1.5,6.432 2.52133,9.55733 14.864,45.604 63.88,70.51467 109.464,55.64533 45.604,-14.84933 70.49466,-63.86399 55.64533,-109.46933" /></svg>
